<?xml version="1.0" standalone="no"?>
<!DOCTYPE svg PUBLIC "-//W3C//DTD SVG 20010904//EN"
 "http://www.w3.org/TR/2001/REC-SVG-20010904/DTD/svg10.dtd">
<svg version="1.0" xmlns="http://www.w3.org/2000/svg"
 width="256.000000pt" height="217.000000pt" viewBox="0 0 256.000000 217.000000"
 preserveAspectRatio="xMidYMid meet">

<g transform="translate(0.000000,217.000000) scale(0.100000,-0.100000)"
fill="#86c19e" stroke="none">
<path d="M420 2120 c-141 -20 -278 -131 -338 -274 -32 -76 -34 -85 -30 -180 3
-88 7 -109 34 -166 17 -36 52 -88 77 -116 44 -49 60 -61 177 -136 89 -58 96
-73 103 -218 8 -152 35 -236 103 -319 55 -67 90 -94 174 -134 61 -30 72 -32
175 -31 90 0 118 4 156 21 49 22 165 98 175 114 3 5 32 32 65 59 56 47 64 50
116 50 44 0 67 -7 109 -30 84 -49 97 -79 105 -240 6 -121 10 -142 37 -200 17
-36 49 -87 72 -113 51 -58 144 -121 191 -130 19 -4 52 -11 74 -15 63 -12 198
5 261 33 73 32 171 131 215 215 30 59 33 75 37 170 4 101 3 109 -28 182 -40
96 -104 168 -201 228 -40 25 -91 63 -114 85 l-42 40 -6 129 c-8 176 -34 249
-125 347 -51 56 -83 79 -141 107 -73 35 -80 36 -186 36 -106 1 -113 -1 -185
-35 -47 -23 -101 -60 -145 -100 -111 -102 -122 -109 -177 -109 -65 0 -154 45
-188 96 -22 33 -25 51 -31 173 -7 124 -10 142 -39 205 -42 93 -142 191 -231
227 -71 30 -165 40 -249 29z m194 -136 c82 -33 152 -101 185 -181 18 -47 25
-87 31 -207 5 -83 7 -153 4 -158 -3 -4 -12 -8 -20 -8 -40 0 -164 -65 -221
-116 -34 -29 -66 -54 -72 -54 -6 0 -28 15 -48 33 -21 18 -60 47 -88 65 -134
84 -171 126 -206 230 -38 113 -6 233 84 323 97 96 227 123 351 73z m1192 -494
c90 -41 146 -110 175 -214 21 -80 21 -82 3 -155 -31 -127 -119 -215 -244 -246
-70 -17 -71 -17 -215 11 -143 28 -144 28 -200 10 -40 -12 -76 -35 -126 -79
-145 -127 -153 -132 -233 -152 -66 -16 -83 -17 -124 -7 -130 34 -226 119 -258
230 -22 73 -21 121 1 201 16 55 28 74 79 125 93 93 213 128 315 91 23 -8 79
-19 125 -25 132 -18 166 -4 310 127 133 122 249 146 392 83z m279 -600 c16
-17 58 -49 94 -72 128 -82 162 -119 197 -214 30 -84 30 -126 1 -208 -46 -125
-118 -188 -243 -211 -124 -24 -227 6 -307 90 -67 69 -89 139 -98 310 -6 105
-5 143 4 151 7 7 49 26 94 44 61 24 97 46 140 86 32 29 65 53 74 54 8 0 28
-14 44 -30z"/>
<path d="M405 1865 c-137 -74 -154 -251 -32 -347 35 -28 50 -33 107 -36 78 -5
106 7 164 67 29 30 41 51 46 85 14 95 -9 154 -84 216 -39 32 -153 40 -201 15z
m146 -124 c41 -42 39 -80 -6 -120 -45 -39 -65 -39 -109 3 -44 41 -45 65 -5
111 40 45 78 47 120 6z"/>
<path d="M1601 1385 c-87 -27 -131 -93 -131 -195 0 -76 17 -109 81 -160 46
-37 56 -40 111 -40 77 0 134 32 177 99 26 40 31 58 31 107 0 39 -6 68 -17 84
-37 56 -79 91 -127 105 -59 18 -68 18 -125 0z m124 -131 c14 -15 25 -30 25
-35 0 -4 3 -14 6 -22 3 -8 -8 -30 -26 -51 -39 -44 -75 -47 -119 -10 -41 34
-42 75 -2 115 38 38 83 39 116 3z"/>
<path d="M834 1182 c-38 -13 -89 -54 -115 -91 -20 -30 -24 -48 -24 -107 0 -62
3 -75 28 -107 51 -68 89 -89 159 -90 109 -2 187 57 207 155 18 89 -5 149 -81
211 -28 23 -48 29 -94 32 -33 3 -68 1 -80 -3z m111 -133 c47 -41 49 -86 4
-123 -40 -34 -78 -33 -111 2 -45 47 -45 68 0 112 22 22 47 40 55 40 9 0 32
-14 52 -31z"/>
<path d="M1996 690 c-35 -11 -104 -76 -118 -110 -5 -13 -9 -53 -9 -88 0 -75
26 -122 92 -168 33 -23 51 -28 103 -28 52 -1 69 4 103 26 23 15 54 44 70 64
25 33 28 46 28 109 0 63 -4 77 -29 113 -16 23 -44 52 -63 63 -38 24 -131 34
-177 19z m112 -116 c30 -20 54 -70 47 -94 -9 -27 -62 -70 -87 -70 -12 0 -36
11 -55 26 -47 36 -46 80 2 123 40 35 60 38 93 15z"/>
</g>
</svg>
