<?xml version="1.0" standalone="no"?>
<!DOCTYPE svg PUBLIC "-//W3C//DTD SVG 20010904//EN"
 "http://www.w3.org/TR/2001/REC-SVG-20010904/DTD/svg10.dtd">
<svg version="1.0" xmlns="http://www.w3.org/2000/svg"
 width="144.000000pt" height="256.000000pt" viewBox="0 0 144.000000 256.000000"
 preserveAspectRatio="xMidYMid meet">

<g transform="translate(0.000000,256.000000) scale(0.100000,-0.100000)"
fill="#86c19e" stroke="none">
<path d="M486 2538 c-3 -13 -6 -149 -6 -304 0 -275 0 -282 -22 -314 -17 -25
-35 -36 -72 -45 -34 -9 -58 -23 -80 -48 -17 -19 -47 -45 -66 -58 -19 -13 -41
-32 -49 -43 -8 -10 -23 -26 -34 -35 -24 -20 -85 -150 -98 -211 -6 -25 -15 -67
-21 -95 -7 -32 -12 -220 -12 -525 l-1 -474 44 -8 c25 -4 49 -12 55 -18 7 -8
10 -71 8 -186 l-3 -175 63 3 63 3 5 665 5 665 29 78 c30 84 89 167 139 198 22
13 50 19 93 19 72 0 94 -17 94 -72 0 -52 24 -68 102 -68 76 0 98 16 98 72 0
51 24 68 96 68 41 0 69 -6 91 -19 50 -31 109 -114 139 -198 l29 -78 3 -668 3
-667 65 0 66 0 -3 169 c-3 188 1 201 55 201 18 0 37 5 44 12 19 19 17 902 -2
960 -8 24 -17 70 -21 103 -7 63 -77 237 -98 244 -7 2 -44 36 -83 76 -64 65
-157 125 -194 125 -5 0 -19 15 -30 33 -19 30 -20 51 -20 312 0 154 -3 290 -6
303 -6 22 -6 22 -234 22 -228 0 -228 0 -234 -22z"/>
</g>
</svg>
