<?xml version="1.0" standalone="no"?>
<!DOCTYPE svg PUBLIC "-//W3C//DTD SVG 20010904//EN"
 "http://www.w3.org/TR/2001/REC-SVG-20010904/DTD/svg10.dtd">
<svg version="1.0" xmlns="http://www.w3.org/2000/svg"
 width="354.000000pt" height="304.000000pt" viewBox="0 0 354.000000 304.000000"
 preserveAspectRatio="xMidYMid meet">

<g transform="translate(0.000000,304.000000) scale(0.100000,-0.100000)"
fill="#ffffff" stroke="none">
<path d="M1608 3000 c-39 -39 -40 -42 -36 -92 7 -71 47 -108 116 -108 51 0 92
21 92 47 0 11 -6 14 -22 8 -81 -25 -124 -17 -142 27 -31 73 46 145 115 108 15
-9 21 -7 26 6 9 24 -23 44 -70 44 -33 0 -46 -7 -79 -40z"/>
<path d="M1855 3030 c-3 -5 -9 -58 -12 -116 -6 -101 -5 -106 13 -102 14 2 20
13 22 41 3 31 7 37 26 37 26 0 46 -17 46 -40 0 -25 27 -57 39 -45 6 7 6 26 -1
59 -8 36 -7 55 1 68 18 28 13 53 -15 82 -21 20 -37 26 -70 26 -23 0 -46 -4
-49 -10z m96 -46 c19 -23 -1 -49 -37 -49 -30 0 -42 20 -30 51 7 19 50 18 67
-2z"/>
<path d="M2096 2910 c-68 -109 -76 -152 -19 -98 20 18 28 20 61 12 30 -7 38
-14 40 -36 3 -26 25 -38 36 -20 5 8 -19 179 -29 213 -12 36 -33 19 -89 -71z
m64 -20 c0 -19 -5 -30 -14 -30 -22 0 -28 17 -14 40 18 28 28 25 28 -10z"/>
<path d="M1344 2959 c-18 -5 -34 -15 -36 -22 -6 -15 51 -200 65 -208 5 -4 24
-2 41 3 126 43 120 209 -9 231 -16 3 -44 1 -61 -4z m98 -59 c25 -26 29 -36 24
-63 -6 -33 -38 -67 -61 -67 -8 0 -23 31 -35 71 -19 59 -20 73 -9 80 25 16 50
9 81 -21z"/>
<path d="M2321 2929 c-5 -13 -20 -53 -35 -88 -14 -36 -26 -73 -26 -83 0 -27
29 -22 36 7 10 39 28 49 69 35 20 -7 39 -9 43 -6 11 11 -14 40 -39 46 -17 4
-24 13 -24 30 0 21 4 25 30 23 17 -1 42 -4 58 -8 43 -11 35 21 -10 41 -69 29
-92 29 -102 3z"/>
<path d="M1194 2886 c-3 -9 6 -39 21 -67 14 -28 24 -53 21 -56 -3 -3 -37 11
-75 31 -72 38 -101 44 -101 24 0 -17 88 -186 100 -193 24 -15 21 30 -4 77 -15
28 -25 53 -22 56 3 3 40 -12 81 -33 102 -53 109 -43 51 73 -48 96 -62 113 -72
88z"/>
<path d="M2520 2858 c0 -7 11 -21 25 -33 l25 -20 -45 -79 c-29 -50 -42 -83
-36 -89 14 -14 27 -2 62 61 50 89 56 94 90 77 17 -10 30 -11 34 -5 9 15 1 23
-64 63 -61 38 -91 46 -91 25z"/>
<path d="M907 2723 c-3 -5 6 -47 20 -94 14 -46 27 -94 30 -106 3 -15 13 -23
25 -23 17 0 20 5 15 29 -10 48 57 93 90 60 12 -12 33 -4 33 12 0 10 -165 119
-191 126 -9 3 -19 1 -22 -4z m88 -76 c10 -8 15 -19 11 -25 -10 -17 -33 -15
-40 4 -14 36 -3 44 29 21z"/>
<path d="M2686 2653 c-36 -43 -65 -85 -66 -93 0 -19 77 -80 102 -80 28 0 22
15 -18 49 -25 20 -35 35 -31 45 10 27 35 29 63 7 54 -43 76 -14 23 30 -28 22
-30 28 -20 47 15 28 25 28 65 -3 37 -28 56 -32 56 -10 0 14 -84 85 -101 85 -5
0 -38 -35 -73 -77z"/>
<path d="M1740 2634 c-104 -37 -187 -134 -209 -243 -28 -136 51 -282 188 -344
64 -30 178 -30 242 0 207 94 258 354 101 511 -80 80 -220 113 -322 76z m59
-178 c9 -11 3 -36 -32 -118 -24 -56 -47 -111 -50 -120 -7 -19 -47 -25 -47 -8
0 11 48 133 66 169 18 33 10 41 -40 41 -48 0 -74 18 -54 38 17 17 143 16 157
-2z m222 -22 c20 -22 24 -35 23 -89 -1 -53 -5 -70 -27 -98 -33 -43 -80 -65
-102 -47 -18 15 -3 40 24 40 18 0 41 18 41 32 0 4 -15 8 -34 8 -76 0 -115 96
-61 154 34 37 101 37 136 0z"/>
<path d="M1917 2402 c-22 -24 -21 -45 1 -65 37 -34 82 -15 82 33 0 49 -51 68
-83 32z"/>
<path d="M776 2611 c-9 -14 4 -40 25 -52 24 -12 24 -41 1 -62 -26 -23 -41 -21
-74 10 -22 21 -31 24 -40 15 -10 -10 4 -29 62 -87 41 -41 82 -75 92 -75 25 0
23 9 -14 47 l-32 33 32 32 32 32 35 -34 c30 -29 35 -31 41 -16 5 13 -12 37
-67 92 -75 75 -83 81 -93 65z"/>
<path d="M2836 2507 l-78 -72 23 -29 c30 -38 81 -58 124 -50 49 9 95 63 95
111 0 42 -43 113 -69 113 -9 0 -51 -33 -95 -73z m112 11 c21 -21 14 -77 -13
-103 -27 -27 -51 -31 -90 -13 -36 16 -31 34 23 83 50 47 61 52 80 33z"/>
<path d="M339 2061 c-91 -18 -221 -116 -275 -208 -108 -181 -72 -413 64 -413
31 0 34 2 27 23 -22 73 -26 112 -23 202 4 83 9 110 32 157 25 54 97 128 123
128 13 0 20 -35 34 -170 13 -133 25 -248 39 -375 6 -55 15 -145 21 -200 35
-344 40 -384 49 -390 6 -4 180 42 188 50 3 3 31 137 77 365 14 69 29 143 35
165 5 22 19 85 30 140 11 55 25 118 30 140 44 190 79 368 75 376 -9 13 -71 11
-82 -3 -6 -7 -18 -56 -27 -108 -10 -52 -26 -140 -37 -195 -10 -55 -24 -125
-29 -155 -17 -95 -50 -273 -59 -325 -5 -27 -12 -67 -16 -87 -3 -21 -10 -40
-15 -43 -12 -7 -15 11 -30 150 -6 61 -15 146 -21 190 -16 134 -28 235 -39 340
-16 139 -30 236 -36 246 -6 10 -83 10 -135 0z"/>
<path d="M947 1969 c-40 -23 -59 -98 -36 -142 24 -47 51 -67 90 -67 30 0 42 6
58 29 60 84 -29 228 -112 180z"/>
<path d="M1845 1886 c-66 -12 -59 0 -80 -128 -4 -25 -12 -39 -25 -43 -24 -8
-26 -33 -4 -42 14 -5 15 -17 9 -87 -24 -284 -50 -366 -116 -366 -46 0 -51 24
-34 155 25 196 18 263 -35 310 -32 29 -118 28 -159 -2 -37 -28 -37 -28 -44 -2
-6 21 -10 21 -79 15 -40 -4 -76 -12 -79 -18 -4 -6 -10 -54 -13 -107 -13 -185
-27 -326 -37 -363 -20 -77 -86 -122 -119 -83 -13 16 -5 187 21 443 5 52 6 98
3 104 -6 10 -140 5 -150 -5 -5 -5 -18 -158 -34 -392 -12 -187 -1 -263 45 -302
47 -41 127 -23 185 43 35 41 40 42 40 9 0 -15 6 -25 15 -25 17 0 122 27 133
34 5 3 14 65 21 138 31 351 40 389 87 410 23 11 29 9 46 -12 18 -22 19 -34 14
-95 -4 -38 -9 -126 -13 -195 l-6 -126 35 -37 c27 -29 43 -37 69 -37 51 1 111
33 148 79 l34 42 26 -32 c24 -28 33 -32 73 -32 56 1 115 30 156 77 34 39 46
44 59 23 28 -46 115 -61 179 -31 19 9 48 32 65 52 l31 35 24 -26 c30 -32 62
-41 115 -33 43 7 114 48 123 72 8 20 26 17 53 -7 14 -14 40 -24 71 -27 46 -4
73 4 155 46 4 2 7 -3 7 -12 0 -8 -27 -29 -59 -46 -67 -36 -94 -62 -108 -105
-33 -98 98 -140 213 -69 53 32 80 76 98 157 10 47 16 54 58 77 25 14 55 34 67
44 19 18 21 18 50 -3 23 -17 44 -21 103 -21 84 0 142 22 176 65 27 34 29 60 5
50 -104 -44 -146 -44 -164 2 -13 35 -6 51 28 59 62 13 132 47 160 77 60 63 68
109 28 147 -21 20 -35 23 -99 23 -132 0 -223 -64 -267 -188 -10 -30 -19 -75
-19 -100 0 -26 -4 -55 -10 -65 -11 -21 -78 -65 -86 -57 -3 3 11 91 32 196 21
105 35 194 31 197 -10 11 -140 4 -154 -7 -8 -7 -18 -7 -32 0 -11 6 -39 11 -63
11 -148 0 -251 -117 -267 -302 -6 -67 -11 -84 -30 -99 -43 -35 -81 -18 -81 36
0 17 11 98 25 179 14 81 25 154 25 162 0 22 -146 20 -158 -2 -9 -16 -11 -16
-33 0 -47 33 -145 14 -208 -41 -67 -57 -121 -192 -121 -304 0 -49 -4 -61 -29
-88 -33 -36 -75 -41 -90 -12 -8 13 -5 67 9 183 28 226 25 216 63 220 44 4 52
38 9 38 -36 0 -41 11 -31 65 5 22 8 57 9 78 0 42 1 42 -95 23z m1603 -189 c9
-48 -29 -101 -94 -132 -53 -25 -62 -8 -29 57 36 72 63 100 95 96 15 -2 26 -10
28 -21z m-534 -13 c9 -8 14 -25 11 -37 -2 -12 -13 -67 -25 -122 -17 -85 -24
-104 -50 -127 -80 -73 -133 2 -96 137 18 68 40 108 76 139 36 30 62 33 84 10z
m-589 -17 c20 -15 19 -60 -5 -211 -12 -82 -26 -112 -62 -139 -40 -30 -74 -17
-89 33 -24 80 24 255 83 305 34 28 47 31 73 12z m515 -459 c0 -39 -37 -90 -63
-86 -36 5 -33 41 8 77 42 37 55 39 55 9z"/>
<path d="M1264 875 c-68 -40 -100 -109 -87 -188 8 -54 70 -121 127 -137 61
-17 97 -8 186 45 99 60 131 60 230 0 41 -25 90 -48 108 -51 46 -9 101 9 174
57 78 50 120 52 198 7 97 -55 128 -68 159 -68 61 0 133 45 161 100 61 119 -27
260 -162 260 -34 0 -61 -10 -121 -46 -114 -68 -137 -68 -248 -4 -85 49 -94 52
-144 48 -40 -3 -68 -14 -107 -39 -116 -76 -148 -77 -253 -9 -90 58 -154 66
-221 25z m129 -77 c33 -17 46 -39 47 -79 0 -88 -124 -119 -165 -40 -22 44 -19
69 14 102 31 31 67 37 104 17z m519 -8 c48 -37 41 -118 -13 -145 -40 -21 -63
-19 -98 11 -89 74 21 206 111 134z m509 -9 c57 -58 21 -146 -60 -146 -50 0
-79 26 -88 78 -5 31 -1 40 25 67 41 40 83 41 123 1z"/>
<path d="M2491 418 c-13 -7 -33 -25 -44 -40 -17 -23 -19 -31 -9 -53 16 -36 47
-44 104 -30 36 10 51 10 63 1 34 -24 -21 -76 -80 -76 -40 0 -25 -24 16 -28 44
-3 78 15 101 54 16 27 17 36 7 58 -16 34 -50 42 -111 26 -37 -9 -53 -9 -61 -1
-22 22 11 54 66 66 16 3 27 11 24 18 -5 17 -47 20 -76 5z"/>
<path d="M1153 398 c-23 -28 -93 -166 -93 -181 0 -17 66 -57 93 -57 8 0 26 9
41 21 19 15 26 30 26 56 0 19 9 46 19 59 24 30 18 57 -21 89 -33 28 -51 31
-65 13z m55 -62 c5 -24 -10 -38 -31 -30 -17 6 -23 35 -10 48 12 12 38 1 41
-18z m-38 -76 c16 -16 18 -25 10 -40 -13 -24 -37 -26 -61 -4 -17 15 -17 18 -2
40 19 29 27 30 53 4z"/>
<path d="M2293 320 c-24 -11 -43 -26 -43 -35 0 -19 69 -194 80 -200 9 -5 110
31 124 45 7 7 6 14 -1 21 -9 9 -23 7 -54 -5 -41 -17 -44 -17 -56 0 -19 27 -16
34 21 49 19 8 38 20 42 26 12 20 -19 28 -54 13 -40 -16 -52 -12 -52 21 0 17 9
27 40 39 43 17 55 46 18 45 -13 0 -42 -9 -65 -19z"/>
<path d="M1306 268 c-39 -90 -59 -148 -53 -154 15 -16 35 10 61 77 16 41 33
78 37 84 15 15 10 45 -7 45 -9 0 -24 -22 -38 -52z"/>
<path d="M1432 260 c-70 -43 -77 -136 -15 -190 31 -27 41 -31 86 -28 38 2 52
7 52 18 0 11 -15 16 -51 20 -59 6 -80 20 -89 60 -17 78 68 127 137 79 21 -15
33 -18 40 -11 23 23 -46 72 -99 72 -15 0 -43 -9 -61 -20z"/>
<path d="M2075 250 c-5 -8 27 -166 41 -203 7 -19 30 -21 88 -8 45 11 64 27 51
40 -6 6 -26 6 -54 0 -53 -12 -53 -12 -75 91 -16 72 -36 104 -51 80z"/>
<path d="M1640 223 c0 -9 12 -37 27 -62 22 -38 27 -56 24 -103 -2 -45 1 -58
12 -58 18 0 27 21 27 64 0 31 42 104 69 121 15 9 14 35 -2 35 -7 0 -26 -13
-42 -30 -16 -16 -32 -30 -36 -30 -3 0 -18 18 -33 40 -28 42 -46 51 -46 23z"/>
<path d="M1855 205 c-30 -30 -35 -43 -35 -80 0 -38 6 -52 36 -85 31 -34 42
-40 76 -40 47 0 98 24 98 46 0 13 -6 15 -27 9 -71 -17 -88 -17 -116 5 -37 29
-38 86 -2 120 22 20 31 22 80 16 45 -5 55 -3 55 9 0 21 -33 35 -84 35 -39 0
-51 -5 -81 -35z"/>
</g>
</svg>
