<?xml version="1.0" standalone="no"?>
<!DOCTYPE svg PUBLIC "-//W3C//DTD SVG 20010904//EN"
 "http://www.w3.org/TR/2001/REC-SVG-20010904/DTD/svg10.dtd">
<svg version="1.0" xmlns="http://www.w3.org/2000/svg"
 width="256.000000pt" height="187.000000pt" viewBox="0 0 256.000000 187.000000"
 preserveAspectRatio="xMidYMid meet">

<g transform="translate(0.000000,187.000000) scale(0.100000,-0.100000)"
fill="#86c19e" stroke="none">
<path d="M2253 1800 c-12 -5 -29 -23 -39 -41 -14 -27 -14 -38 -4 -70 7 -21 10
-45 7 -53 -10 -25 -67 -55 -127 -66 -30 -5 -89 -20 -130 -31 -41 -12 -118 -32
-170 -45 -194 -47 -267 -66 -347 -90 -45 -13 -106 -29 -135 -34 -29 -5 -90
-22 -135 -36 -108 -35 -140 -28 -164 35 -19 53 -42 71 -87 71 -24 0 -42 -8
-64 -30 -27 -28 -29 -34 -24 -78 4 -26 8 -65 9 -87 2 -44 46 -2 -579 -551
-246 -215 -266 -241 -244 -311 27 -81 70 -158 97 -175 19 -11 63 -18 138 -23
61 -3 204 -15 320 -26 116 -11 267 -23 336 -27 l127 -8 46 -41 c97 -85 179
-95 275 -33 67 42 81 71 81 164 l0 75 81 98 c111 133 340 408 474 567 61 72
157 188 213 259 116 142 139 155 168 94 21 -44 64 -61 117 -45 56 17 77 86 41
137 -9 13 -27 51 -39 85 -59 160 -117 282 -147 309 -22 18 -59 21 -95 7z
m-193 -444 c14 -18 12 -22 -75 -126 -127 -150 -289 -344 -335 -400 -25 -30
-95 -114 -157 -187 -62 -73 -119 -143 -128 -157 -9 -13 -30 -30 -46 -36 -41
-17 -56 -1 -69 73 -6 32 -22 86 -34 120 -13 34 -27 82 -31 107 -4 25 -16 67
-27 94 -10 27 -23 72 -29 100 -6 28 -18 73 -27 100 -16 47 -16 48 6 66 25 20
155 65 217 75 22 4 76 17 120 30 74 22 147 41 315 81 36 9 103 28 150 44 98
32 133 36 150 16z m-1130 -385 c5 -11 10 -30 10 -43 0 -13 13 -62 30 -108 16
-47 30 -93 30 -103 0 -10 9 -43 21 -75 20 -56 66 -222 76 -274 4 -20 -1 -30
-22 -44 -24 -16 -39 -16 -203 -5 -97 7 -233 19 -302 27 -69 7 -156 14 -195 14
-81 1 -138 18 -143 41 -2 11 66 78 194 190 372 330 455 399 474 399 11 0 24
-9 30 -19z m372 -711 c26 -27 30 -36 25 -68 -15 -94 -134 -97 -162 -4 -4 15
-1 32 11 50 39 61 80 67 126 22z"/>
</g>
</svg>
