<?xml version="1.0" standalone="no"?>
<!DOCTYPE svg PUBLIC "-//W3C//DTD SVG 20010904//EN"
 "http://www.w3.org/TR/2001/REC-SVG-20010904/DTD/svg10.dtd">
<svg version="1.0" xmlns="http://www.w3.org/2000/svg"
 width="260.000000pt" height="272.000000pt" viewBox="0 0 260.000000 272.000000"
 preserveAspectRatio="xMidYMid meet">

<g transform="translate(0.000000,272.000000) scale(0.100000,-0.100000)"
fill="#ffffff" stroke="none">
<path d="M690 2702 c-25 -9 -51 -21 -58 -25 -30 -20 0 -91 51 -119 12 -7 46
-15 76 -18 57 -5 57 -5 92 -82 l21 -47 -54 -93 c-29 -51 -56 -100 -60 -110 -9
-23 -12 -23 -78 4 -44 17 -76 22 -160 22 -95 0 -113 -3 -185 -32 -152 -60
-258 -174 -310 -333 -28 -86 -29 -143 -8 -264 34 -188 213 -355 419 -391 197
-34 411 61 521 234 19 30 41 52 51 52 21 0 135 -35 162 -50 36 -19 16 -90 -25
-90 -18 0 -26 -25 -12 -39 18 -18 142 -14 158 5 11 13 8 19 -16 38 -37 29 -26
49 46 85 91 45 125 142 80 229 l-19 38 220 294 c122 162 224 296 228 298 9 3
40 -71 40 -96 0 -11 -14 -25 -32 -34 -98 -47 -202 -170 -247 -291 -44 -121
-35 -268 26 -394 41 -87 149 -191 243 -235 371 -176 789 130 730 535 -29 203
-167 362 -370 427 -54 17 -170 23 -220 12 -49 -12 -65 -5 -73 31 -2 12 -27 86
-55 164 -56 161 -56 158 27 188 63 22 134 20 156 -5 16 -18 17 -24 5 -61 -12
-37 -54 -79 -78 -79 -19 0 -34 -30 -28 -55 8 -31 41 -33 96 -5 113 57 122 218
17 275 -52 27 -146 18 -231 -24 -88 -43 -97 -61 -68 -145 12 -35 22 -69 22
-75 0 -8 -118 -11 -425 -11 l-425 0 -26 55 c-14 31 -23 64 -20 73 13 37 76 67
154 72 56 4 78 9 86 22 8 13 7 21 -4 33 -36 36 -356 48 -440 17z m1067 -359
c-6 -22 -357 -493 -367 -493 -4 0 -10 9 -13 20 -5 18 -14 20 -81 20 -62 0 -78
-3 -83 -16 -4 -11 2 -23 16 -34 15 -11 22 -25 19 -40 -6 -44 -28 -33 -53 27
-38 87 -41 94 -64 146 -12 27 -35 81 -51 120 -16 40 -45 108 -64 152 -57 128
-96 115 355 115 368 0 391 -1 386 -17z m-827 -70 c7 -21 25 -65 41 -98 15 -33
49 -112 74 -175 26 -63 56 -132 66 -152 11 -21 19 -46 19 -58 0 -17 -6 -20
-45 -20 -41 0 -45 2 -50 28 -27 125 -90 234 -183 317 l-45 41 43 77 c23 42 47
77 54 77 7 0 18 -17 26 -37z m-312 -144 c80 -20 81 -22 11 -145 -34 -60 -70
-122 -79 -139 -9 -16 -31 -37 -50 -46 -63 -30 -77 -78 -37 -124 16 -19 34 -27
69 -30 25 -3 64 -11 85 -19 21 -7 58 -19 83 -26 25 -7 54 -16 65 -20 11 -5 44
-16 73 -25 28 -9 52 -19 52 -22 0 -14 -66 -96 -102 -128 -83 -71 -170 -99
-292 -93 -76 3 -101 9 -156 35 -211 102 -298 351 -195 560 86 175 284 267 473
222z m1573 -3 c76 -23 130 -55 186 -112 122 -122 156 -312 83 -468 -36 -75
-121 -161 -199 -199 -63 -30 -72 -32 -181 -32 -110 0 -118 1 -182 33 -140 70
-238 223 -238 372 0 91 43 205 105 277 39 46 129 108 144 98 6 -3 15 -20 20
-38 5 -18 29 -90 54 -161 34 -98 43 -135 36 -153 -11 -31 8 -72 38 -79 36 -10
73 4 83 31 11 29 -2 73 -24 81 -16 6 -33 44 -81 184 -20 58 -41 116 -48 129
-10 19 -8 25 8 37 25 18 136 18 196 0z m-1371 -114 c50 -52 94 -133 105 -194
l7 -38 -166 0 c-91 0 -166 3 -166 6 0 17 153 274 162 274 7 0 33 -22 58 -48z
m560 -179 c0 -15 -52 -73 -61 -67 -11 6 -3 41 13 62 11 12 48 17 48 5z m-452
-88 c14 -5 16 -41 2 -50 -8 -5 -230 27 -290 42 -25 6 -25 6 5 12 31 7 260 3
283 -4z m212 -3 c0 -13 -50 -82 -60 -82 -27 0 -40 15 -40 44 0 18 3 36 7 39 9
10 93 9 93 -1z m-358 -97 c142 -24 140 -23 136 -48 -4 -28 -33 -33 -90 -14
-24 8 -77 25 -118 37 -41 13 -79 27 -84 32 -15 13 54 10 156 -7z m307 -87 c21
-49 13 -67 -21 -51 -13 6 -31 14 -40 17 -21 6 -24 46 -6 64 24 24 48 13 67
-30z"/>
<path d="M810 1121 c-97 -31 -142 -85 -148 -177 -5 -82 22 -144 82 -182 34
-22 52 -26 111 -26 68 0 101 10 137 41 14 12 15 19 5 34 -15 24 -23 24 -72 -1
-44 -23 -71 -25 -112 -9 -98 37 -120 172 -38 235 41 31 132 35 141 7 16 -54
59 -70 82 -33 37 61 -97 140 -188 111z"/>
<path d="M1636 1115 c-91 -32 -136 -95 -136 -189 0 -73 31 -133 87 -167 54
-32 162 -32 216 0 40 25 46 41 22 61 -12 10 -23 8 -58 -9 -49 -24 -73 -26
-114 -10 -42 16 -72 48 -83 89 -14 53 -2 97 37 136 30 30 40 34 89 34 43 0 56
-4 60 -17 12 -38 22 -48 50 -48 26 0 29 4 32 33 4 44 -18 68 -81 87 -61 18
-71 18 -121 0z"/>
<path d="M0 1091 c0 -23 5 -30 23 -33 21 -3 22 -8 25 -108 3 -123 -1 -146 -28
-153 -14 -3 -20 -13 -20 -31 l0 -26 106 0 c107 0 131 6 172 43 32 30 31 98 -3
125 -30 24 -30 27 -5 54 44 47 12 128 -58 148 -20 5 -76 10 -124 10 l-88 0 0
-29z m210 -51 c25 -25 25 -35 -1 -61 -14 -14 -30 -19 -57 -17 -34 3 -37 6 -40
36 -2 19 -1 40 2 48 8 22 72 18 96 -6z m8 -152 c16 -16 15 -63 0 -76 -23 -17
-78 -25 -93 -12 -15 12 -21 81 -8 93 11 12 88 8 101 -5z"/>
<path d="M417 1113 c-4 -3 -7 -17 -7 -30 0 -16 6 -23 20 -23 11 0 20 -4 21
-10 0 -5 0 -59 0 -120 0 -60 0 -114 0 -119 -1 -5 -10 -11 -21 -14 -14 -3 -20
-14 -20 -31 0 -26 1 -26 75 -26 61 0 77 3 82 17 4 11 -3 23 -20 37 -27 21 -27
24 -27 139 0 116 0 118 25 127 27 10 32 29 13 48 -13 13 -130 17 -141 5z"/>
<path d="M1087 1113 c-15 -14 -6 -44 16 -52 28 -11 127 -175 127 -212 0 -27
-22 -59 -41 -59 -5 0 -9 -11 -9 -25 0 -25 1 -25 80 -25 77 0 80 1 80 23 0 16
-9 28 -25 35 -42 19 -34 66 30 169 31 48 65 91 76 95 14 5 19 15 17 30 -3 21
-8 23 -67 23 -51 0 -66 -4 -75 -18 -9 -15 -7 -21 9 -33 20 -15 20 -15 -7 -62
-14 -25 -31 -48 -36 -50 -6 -2 -16 10 -24 25 -8 15 -20 38 -28 49 -12 19 -11
24 3 39 13 12 15 21 7 36 -9 15 -22 19 -69 19 -32 0 -61 -3 -64 -7z"/>
<path d="M1952 1108 c-19 -19 -14 -38 13 -48 25 -9 25 -11 25 -126 0 -113 -1
-118 -26 -141 -45 -42 -30 -48 122 -48 l139 0 2 35 c1 19 -3 43 -8 53 -14 26
-53 19 -57 -10 -4 -27 -43 -40 -81 -27 l-26 9 0 125 c0 117 1 125 20 129 27 5
36 21 24 43 -8 14 -22 18 -72 18 -36 0 -68 -5 -75 -12z"/>
<path d="M2317 1114 c-14 -15 -6 -46 13 -51 19 -5 20 -14 20 -132 0 -115 -2
-127 -20 -139 -11 -7 -20 -21 -20 -32 0 -19 7 -20 146 -20 l145 0 -3 53 c-3
48 -5 52 -29 55 -22 3 -29 -2 -37 -27 -9 -27 -16 -31 -46 -31 -58 0 -66 7 -66
61 l0 48 53 3 c48 3 52 5 55 30 3 26 1 27 -50 30 l-53 3 -3 48 -3 47 55 0 c49
0 55 -2 58 -22 2 -18 10 -23 33 -23 29 0 30 1 30 50 l0 50 -136 3 c-74 1 -138
-1 -142 -4z"/>
<path d="M133 650 c-73 -17 -133 -89 -133 -157 0 -45 34 -108 72 -136 37 -28
134 -35 175 -14 44 23 57 42 38 57 -12 10 -22 9 -51 -5 -49 -23 -109 -15 -142
19 -21 20 -26 35 -26 76 0 42 5 55 29 80 26 28 35 31 80 28 43 -3 50 -6 53
-25 5 -36 53 -41 66 -6 7 18 -16 58 -41 71 -29 15 -85 21 -120 12z"/>
<path d="M495 651 c-48 -12 -82 -39 -105 -85 -24 -50 -25 -91 -6 -137 27 -65
81 -99 154 -99 54 0 100 25 136 73 28 38 28 129 1 175 -35 58 -112 89 -180 73z
m96 -61 c25 -14 49 -62 49 -99 0 -85 -77 -135 -154 -100 -62 28 -74 141 -21
186 28 25 91 31 126 13z"/>
<path d="M773 634 c-4 -11 2 -23 17 -34 22 -17 23 -21 16 -111 -6 -79 -10 -97
-28 -110 -14 -11 -19 -22 -15 -33 10 -25 120 -19 125 7 2 10 -5 25 -16 35 -17
14 -19 26 -15 75 6 68 15 65 64 -21 31 -55 32 -56 48 -35 9 11 28 42 44 67 15
26 32 44 37 41 6 -3 10 -32 10 -64 0 -49 -4 -61 -22 -73 -14 -10 -19 -20 -15
-32 6 -14 17 -16 64 -14 51 3 58 6 61 25 2 14 -3 23 -16 27 -16 6 -20 20 -25
104 -6 91 -5 98 15 113 31 24 17 49 -26 49 -38 0 -50 -13 -101 -107 -16 -29
-33 -53 -39 -53 -6 0 -29 35 -52 78 -40 76 -42 77 -83 80 -31 2 -43 -1 -48
-14z"/>
<path d="M1240 631 c0 -10 7 -24 15 -31 23 -19 22 -205 -1 -218 -9 -5 -14 -18
-12 -28 2 -15 13 -20 54 -22 64 -4 87 16 54 46 -33 30 -22 56 25 63 57 7 85
25 101 66 12 28 13 42 3 70 -17 54 -58 73 -156 73 -75 0 -83 -2 -83 -19z m172
-48 c35 -31 13 -88 -37 -93 -42 -5 -45 -1 -45 55 l0 55 32 0 c17 0 40 -7 50
-17z"/>
<path d="M1593 634 c-4 -10 1 -22 11 -30 20 -14 19 -19 -21 -129 -14 -38 -35
-80 -46 -92 -31 -35 -16 -53 43 -53 57 0 74 18 46 49 -9 10 -14 25 -10 35 9
23 122 23 131 0 3 -8 1 -20 -6 -27 -6 -6 -11 -21 -11 -34 0 -21 4 -23 54 -23
64 0 75 14 43 58 -32 43 -85 204 -69 209 6 3 12 16 12 29 0 24 -2 24 -85 24
-70 0 -87 -3 -92 -16z m112 -90 c23 -55 20 -64 -21 -64 l-36 0 7 38 c6 33 21
62 31 62 2 0 11 -16 19 -36z"/>
<path d="M1913 633 c-4 -11 1 -22 15 -31 20 -13 22 -23 22 -105 0 -79 -3 -94
-21 -113 -34 -36 -19 -54 46 -54 43 0 57 4 62 17 4 11 -1 22 -15 31 -19 12
-22 24 -22 83 0 38 4 69 9 69 5 0 45 -45 87 -100 43 -55 84 -100 90 -100 20 0
24 27 24 147 0 96 3 118 17 128 9 7 14 19 10 29 -9 23 -115 23 -124 -1 -4 -11
1 -22 15 -31 18 -12 22 -24 22 -68 0 -72 -14 -70 -73 9 -78 103 -82 107 -121
107 -25 0 -39 -5 -43 -17z"/>
<path d="M2303 634 c-4 -10 4 -24 20 -37 38 -32 97 -137 97 -173 0 -21 -7 -36
-22 -46 -14 -9 -19 -20 -15 -31 5 -13 19 -17 66 -17 66 0 85 18 51 47 -32 28
-25 74 23 152 26 44 49 71 60 71 11 0 17 8 17 25 0 24 -3 25 -55 25 -59 0 -79
-16 -56 -44 10 -11 8 -23 -9 -55 -11 -23 -24 -41 -28 -41 -5 0 -19 18 -31 40
-18 33 -20 44 -11 55 7 8 10 22 6 30 -8 22 -104 21 -113 -1z"/>
<path d="M778 208 c-28 -24 -28 -45 3 -88 35 -49 35 -83 0 -88 -22 -3 -23 -1
-18 28 6 26 4 31 -10 28 -27 -5 -38 -33 -25 -62 10 -22 18 -26 51 -26 76 0
100 71 45 131 -27 28 -32 59 -9 59 8 0 15 -4 15 -10 0 -5 7 -10 15 -10 18 0
20 21 3 38 -16 16 -50 15 -70 0z"/>
<path d="M1514 208 c-23 -11 -44 -47 -44 -76 0 -26 20 -42 52 -42 32 0 37 -19
10 -43 -11 -10 -26 -14 -42 -10 -19 5 -22 3 -17 -11 4 -10 7 -20 7 -22 0 -2
10 -4 23 -4 46 0 97 79 97 151 0 48 -44 77 -86 57z m44 -56 c3 -28 0 -32 -22
-32 -32 0 -39 12 -24 45 16 35 42 28 46 -13z"/>
<path d="M1648 209 c-10 -5 -18 -19 -18 -29 0 -23 18 -27 26 -5 4 8 12 15 20
15 27 0 14 -48 -26 -96 -22 -27 -40 -56 -40 -65 0 -18 28 -29 78 -29 29 0 33
3 30 23 -2 15 -9 21 -22 19 -47 -8 -49 7 -7 53 29 31 41 53 41 74 0 43 -42 64
-82 40z"/>
<path d="M1813 208 c-30 -15 -63 -85 -63 -135 0 -44 23 -73 57 -73 26 0 73 54
73 84 0 31 -33 60 -59 51 -25 -8 -27 3 -5 33 10 15 22 21 34 17 23 -7 38 14
19 26 -18 11 -28 10 -56 -3z m27 -126 c0 -30 -16 -52 -37 -52 -16 0 -17 52 -1
68 21 21 38 14 38 -16z"/>
<path d="M1413 203 c-7 -2 -13 -14 -13 -26 0 -12 -7 -53 -15 -92 -9 -45 -11
-73 -5 -79 18 -18 32 11 51 100 21 99 19 112 -18 97z"/>
<path d="M902 183 c2 -10 10 -18 18 -18 8 0 16 8 18 18 2 12 -3 17 -18 17 -15
0 -20 -5 -18 -17z"/>
<path d="M892 133 c-15 -28 -25 -89 -17 -112 5 -17 14 -20 52 -18 l47 2 12 48
c7 27 15 51 18 54 12 12 26 -10 20 -33 -9 -37 3 -74 25 -74 11 0 21 6 24 13 3
9 9 9 26 -1 28 -16 56 -15 71 3 12 14 15 14 36 0 42 -27 75 -10 42 23 -9 9 -5
18 21 40 38 31 40 65 4 70 -28 4 -68 -37 -76 -77 -4 -21 -13 -30 -32 -34 -32
-6 -42 13 -29 52 8 21 16 25 37 23 29 -3 35 9 13 27 -8 7 -25 9 -41 5 -25 -6
-42 -32 -59 -86 -11 -35 -29 -19 -23 21 7 53 -2 63 -54 59 -43 -3 -44 -4 -57
-50 -19 -69 -48 -64 -33 5 6 26 5 39 -4 47 -10 9 -16 7 -23 -7z"/>
</g>
</svg>
