<?xml version="1.0" standalone="no"?>
<!DOCTYPE svg PUBLIC "-//W3C//DTD SVG 20010904//EN"
 "http://www.w3.org/TR/2001/REC-SVG-20010904/DTD/svg10.dtd">
<svg version="1.0" xmlns="http://www.w3.org/2000/svg"
 width="416.000000pt" height="134.000000pt" viewBox="0 0 416.000000 134.000000"
 preserveAspectRatio="xMidYMid meet">

<g transform="translate(0.000000,134.000000) scale(0.100000,-0.100000)"
fill="#ffffff" stroke="none">
<path d="M370 1330 c-8 -5 -24 -10 -34 -10 -41 0 -182 -79 -234 -130 -122
-120 -137 -268 -33 -315 52 -23 74 -15 64 22 -32 115 41 279 151 335 158 81
306 55 345 -61 23 -70 -28 -182 -104 -227 -45 -26 -85 -32 -85 -11 0 6 7 44
15 82 46 212 47 198 -17 191 -110 -14 -129 -18 -137 -34 -8 -16 -18 -60 -72
-317 -29 -135 -36 -171 -59 -275 -39 -184 -50 -235 -50 -238 0 -1 44 -1 97 0
l97 3 8 40 c4 22 16 83 27 135 12 52 31 140 42 195 28 131 30 135 82 135 92 0
132 -52 132 -170 -1 -99 -20 -164 -62 -206 -39 -40 -73 -43 -122 -13 -18 11
-36 18 -38 15 -3 -3 -8 -24 -10 -48 -12 -105 111 -148 245 -86 62 29 104 86
151 202 18 44 25 184 12 233 -14 52 -55 101 -99 120 l-34 14 40 43 c71 77 93
147 73 223 -19 71 -68 116 -161 150 -41 15 -208 17 -230 3z"/>
<path d="M1359 1285 c-37 -20 -44 -44 -21 -75 19 -25 19 -25 -2 -42 -21 -17
-21 -18 -2 -33 28 -21 99 -20 119 3 24 26 21 58 -5 77 -21 15 -22 17 -5 26 24
14 21 34 -8 47 -33 15 -44 15 -76 -3z m51 -115 c0 -5 -9 -10 -20 -10 -11 0
-20 5 -20 10 0 6 9 10 20 10 11 0 20 -4 20 -10z"/>
<path d="M1523 1293 c-9 -3 -13 -30 -13 -89 0 -83 0 -84 25 -84 25 0 25 1 25
84 0 84 -7 99 -37 89z"/>
<path d="M1616 1287 c-14 -10 -16 -26 -14 -87 3 -73 4 -75 28 -75 21 0 26 6
30 34 l5 35 28 -38 c20 -26 35 -36 50 -34 20 3 22 10 25 79 2 58 -1 79 -12 88
-21 18 -36 5 -36 -30 0 -36 -14 -37 -36 -4 -23 36 -47 47 -68 32z"/>
<path d="M1839 1277 c-28 -19 -35 -30 -37 -65 -3 -34 2 -47 22 -67 29 -29 89
-34 120 -10 26 20 14 50 -17 40 -46 -14 -61 -11 -71 18 -9 24 -7 31 9 43 11 8
26 11 35 8 54 -24 83 14 31 40 -40 21 -52 20 -92 -7z"/>
<path d="M2010 1292 c-6 -2 -10 -41 -10 -88 l0 -85 63 3 c47 2 62 7 62 18 0
10 -12 16 -32 18 -35 3 -46 22 -14 22 34 0 35 40 1 53 -10 4 -9 6 6 6 28 1 51
28 37 42 -10 10 -92 18 -113 11z"/>
<path d="M2412 1290 c-12 -5 -27 -21 -34 -35 -10 -22 -8 -30 11 -56 17 -23 20
-34 12 -42 -23 -23 -12 -37 32 -37 55 0 87 30 87 82 0 50 -8 66 -41 83 -32 17
-35 17 -67 5z m53 -50 c3 -6 -1 -13 -10 -16 -19 -8 -30 0 -20 15 8 14 22 14
30 1z m-15 -70 c0 -5 -4 -10 -10 -10 -5 0 -10 5 -10 10 0 6 5 10 10 10 6 0 10
-4 10 -10z"/>
<path d="M2577 1288 c-40 -14 -32 -43 12 -43 48 0 48 -17 1 -55 -22 -17 -40
-40 -40 -51 0 -17 8 -19 70 -19 62 0 70 2 70 19 0 11 -9 21 -21 24 l-21 6 22
29 c27 37 20 66 -20 87 -33 17 -35 17 -73 3z"/>
<path d="M2768 1285 c-81 -45 -57 -165 34 -165 59 0 90 57 51 95 -14 14 -14
20 -4 37 7 11 9 24 4 28 -17 17 -59 19 -85 5z m42 -110 c0 -8 -7 -15 -15 -15
-8 0 -15 7 -15 15 0 8 7 15 15 15 8 0 15 -7 15 -15z"/>
<path d="M1024 1281 c-36 -15 -64 -60 -64 -102 0 -105 150 -138 195 -42 21 43
13 92 -19 122 -26 25 -80 35 -112 22z"/>
<path d="M2259 1264 l-24 -26 23 -15 c17 -12 22 -25 22 -60 0 -42 1 -44 28
-41 27 3 27 4 27 73 0 39 -1 76 -3 83 -7 21 -47 13 -73 -14z"/>
<path d="M3140 1264 c-14 -3 -43 -7 -65 -9 -55 -8 -64 -15 -74 -66 -17 -82
-51 -244 -71 -339 -24 -107 -38 -176 -50 -235 -10 -51 -106 -145 -167 -163
-67 -20 -120 -16 -148 13 -21 20 -25 34 -25 84 0 172 93 391 166 391 32 0 38
-16 36 -82 l-3 -58 34 0 c50 0 71 29 71 95 0 66 -24 97 -91 116 -93 26 -220
-24 -293 -116 -65 -81 -120 -238 -120 -341 0 -44 -46 -114 -94 -143 -18 -12
-37 -21 -41 -21 -9 0 -2 58 24 175 10 50 29 137 41 195 12 58 26 121 30 140 4
19 11 50 15 68 l8 33 -99 -3 -98 -3 -18 -90 c-10 -49 -22 -108 -27 -130 -5
-22 -16 -76 -25 -120 -22 -103 -33 -134 -64 -167 -34 -37 -79 -38 -92 -4 -11
31 -6 60 70 415 11 52 20 96 20 98 0 1 -42 3 -94 3 -81 0 -95 -2 -100 -17 -3
-10 -15 -65 -27 -123 -61 -304 -53 -278 -101 -327 -84 -88 -211 -121 -263 -68
-22 21 -25 33 -25 92 1 173 97 389 169 381 25 -3 26 -6 29 -70 l3 -68 33 0
c48 0 68 28 68 91 0 66 -23 99 -86 118 -39 12 -57 13 -108 2 -67 -14 -85 -22
-143 -67 -83 -65 -164 -252 -165 -380 0 -35 -6 -47 -35 -73 -40 -35 -94 -42
-115 -15 -14 16 -10 44 40 274 44 207 50 235 50 242 0 5 -43 8 -95 8 l-95 0
-5 -27 c-4 -16 -10 -46 -15 -68 -10 -42 -27 -122 -61 -295 -42 -208 6 -293
156 -277 62 6 85 18 144 72 29 27 45 36 48 27 12 -31 57 -72 98 -88 33 -12 64
-15 118 -12 88 6 161 39 227 104 51 49 60 53 60 25 0 -37 31 -92 63 -112 42
-27 141 -22 185 10 29 20 52 27 52 15 0 -21 -29 -45 -94 -78 -100 -49 -131
-88 -131 -167 0 -69 17 -91 87 -115 44 -14 58 -15 111 -3 50 10 69 21 103 54
40 40 84 132 84 174 0 49 22 81 73 107 29 14 67 39 84 57 l33 31 37 -41 c48
-51 96 -67 187 -61 86 6 169 43 233 105 49 48 53 50 53 26 0 -10 9 -37 20 -61
43 -95 191 -99 290 -6 l47 44 31 -39 c44 -55 101 -75 195 -69 82 5 160 38 214
90 27 26 35 29 48 18 8 -7 15 -18 15 -24 0 -39 95 -86 174 -86 126 0 219 60
251 162 18 60 18 58 -4 383 -5 77 -10 146 -10 153 -1 15 -41 15 -131 1 l-69
-12 -16 -51 c-9 -28 -20 -60 -24 -71 -5 -11 -15 -36 -22 -55 -28 -79 -99 -216
-118 -227 -11 -7 -29 -30 -40 -50 -37 -73 -119 -122 -202 -123 -72 0 -94 23
-94 101 l0 62 50 12 c115 26 198 94 235 191 39 104 12 176 -74 203 -90 28
-228 -23 -297 -111 -57 -73 -103 -193 -115 -304 -6 -59 -11 -73 -39 -101 -25
-25 -42 -33 -69 -33 -62 0 -64 16 -17 235 10 50 28 135 40 190 11 55 30 143
41 195 32 147 38 179 32 185 -6 5 -19 5 -62 -1z m469 -348 c10 -25 -1 -92 -22
-129 -30 -55 -77 -94 -134 -111 -19 -6 -23 -3 -23 13 0 52 58 186 98 226 32
32 70 33 81 1z m335 -98 c3 -13 9 -89 13 -169 l6 -145 -29 -33 c-25 -27 -37
-33 -77 -34 -40 -2 -52 2 -68 22 -25 31 -24 51 4 51 54 0 84 53 55 99 -10 16
-5 34 30 109 23 50 42 98 42 106 0 24 17 19 24 -6z m-1980 -595 c-11 -47 -38
-95 -60 -110 -18 -12 -24 -11 -44 5 -32 26 -21 64 32 102 54 39 81 40 72 3z"/>
</g>
</svg>
