<?xml version="1.0" standalone="no"?>
<!DOCTYPE svg PUBLIC "-//W3C//DTD SVG 20010904//EN"
 "http://www.w3.org/TR/2001/REC-SVG-20010904/DTD/svg10.dtd">
<svg version="1.0" xmlns="http://www.w3.org/2000/svg"
 width="260.000000pt" height="260.000000pt" viewBox="0 0 260.000000 260.000000"
 preserveAspectRatio="xMidYMid meet">

<g transform="translate(0.000000,260.000000) scale(0.100000,-0.100000)"
fill="#86c19e" stroke="none">
<path d="M152 2569 c-48 -14 -118 -89 -132 -139 -31 -115 48 -223 180 -245 49
-8 91 -39 153 -112 44 -53 47 -89 13 -130 -13 -15 -33 -48 -46 -73 -12 -25
-30 -56 -40 -70 -9 -14 -25 -50 -35 -80 -9 -30 -28 -83 -42 -118 -55 -142 -55
-463 1 -604 13 -35 30 -83 36 -108 6 -25 26 -70 44 -100 18 -30 40 -69 48 -87
23 -47 73 -107 168 -203 100 -99 156 -145 211 -172 22 -10 60 -32 85 -47 25
-16 68 -35 96 -42 29 -6 78 -23 110 -36 75 -30 239 -47 378 -39 87 5 129 14
250 53 136 44 187 68 284 132 71 47 77 50 105 40 15 -5 57 -40 94 -77 50 -51
68 -77 75 -109 17 -74 56 -128 114 -157 61 -31 98 -32 153 -7 79 36 135 131
119 204 -16 79 -87 151 -157 162 -23 4 -53 17 -67 30 -14 12 -39 30 -56 40
-37 21 -84 93 -84 128 0 14 11 38 24 54 13 15 33 48 46 73 12 25 30 56 40 70
9 14 25 50 35 80 9 30 28 83 41 117 45 116 56 410 19 540 -29 101 -67 209 -87
248 -90 172 -104 190 -228 315 -100 99 -156 145 -211 172 -22 10 -60 32 -85
47 -25 16 -68 35 -96 42 -29 6 -78 22 -109 35 -78 32 -226 48 -372 40 -104 -6
-136 -12 -260 -53 -78 -25 -153 -54 -167 -63 -14 -10 -47 -29 -75 -43 -27 -13
-59 -34 -69 -46 -30 -33 -76 -27 -128 14 -105 86 -115 98 -122 152 -16 122
-141 206 -254 172z m118 -139 c27 -27 26 -77 -2 -107 -45 -49 -128 -14 -128
54 0 44 30 73 75 73 22 0 43 -8 55 -20z m930 -260 c21 -21 23 -32 14 -68 -8
-29 -42 -47 -128 -66 -68 -16 -133 -45 -175 -77 -58 -45 -145 -41 -157 7 -3
13 -4 30 -1 37 14 38 327 183 400 186 15 1 36 -8 47 -19z m374 -21 c126 -46
262 -121 271 -150 23 -72 -81 -99 -156 -40 -42 32 -107 61 -175 77 -106 24
-133 45 -134 102 0 19 38 52 61 52 12 0 72 -18 133 -41z m-374 -259 c23 -23
28 -114 7 -141 -19 -25 -67 -46 -124 -54 -79 -10 -122 20 -123 87 0 45 29 71
104 93 28 9 58 20 66 25 24 15 48 12 70 -10z m333 -13 c87 -31 107 -50 107
-96 -1 -66 -44 -96 -123 -86 -57 8 -105 29 -124 54 -7 9 -13 40 -13 69 0 40 5
57 21 73 24 24 31 23 132 -14z m-878 -47 c25 -27 23 -81 -4 -122 -47 -75 -71
-129 -90 -203 -23 -89 -45 -118 -92 -118 -35 0 -59 23 -59 59 0 35 78 234 122
309 58 100 86 116 123 75z m1349 14 c46 -18 196 -363 182 -419 -13 -51 -88
-52 -120 -3 -8 13 -22 55 -31 94 -10 46 -32 99 -61 148 -51 85 -59 132 -29
166 19 21 33 24 59 14z m-1126 -224 c31 -29 36 -62 22 -131 -18 -82 -46 -109
-115 -109 -37 0 -60 6 -76 19 -22 17 -23 22 -12 57 20 71 52 146 69 165 23 26
84 25 112 -1z m954 3 c18 -20 78 -166 78 -189 0 -55 -125 -77 -172 -29 -28 28
-54 128 -44 169 15 59 102 90 138 49z m-455 -148 c50 -21 72 -42 94 -90 23
-49 24 -99 4 -156 -21 -58 -48 -85 -108 -105 -58 -19 -118 -14 -176 16 -32 16
-43 30 -60 75 -26 68 -26 118 -2 170 22 49 48 73 98 91 51 18 106 17 150 -1z
m-854 -284 c10 -10 27 -53 38 -96 19 -74 44 -129 90 -201 27 -44 28 -100 2
-126 -35 -35 -65 -18 -113 63 -45 76 -130 287 -130 324 0 59 67 80 113 36z
m340 4 c25 -26 47 -91 47 -140 0 -30 -16 -65 -39 -82 -24 -19 -85 -16 -103 5
-18 19 -78 165 -78 188 0 56 125 77 173 29z m1027 5 c26 -26 25 -34 -6 -116
-31 -84 -39 -94 -73 -94 -34 0 -98 64 -107 107 -7 38 18 96 49 111 39 19 115
14 137 -8z m288 -8 c19 -25 15 -51 -29 -168 -49 -129 -60 -151 -95 -193 -33
-40 -76 -42 -100 -6 -20 31 -15 55 30 129 20 32 42 90 51 129 9 40 23 82 31
95 28 42 84 49 112 14z m-1011 -307 c40 -17 53 -42 53 -99 0 -95 -22 -107
-130 -71 -104 35 -130 56 -130 103 1 39 13 61 45 80 23 14 114 7 162 -13z
m350 4 c70 -26 116 -107 79 -138 -13 -11 -151 -61 -168 -61 -4 0 -17 9 -28 20
-15 15 -20 33 -20 71 0 62 12 87 53 104 39 17 48 18 84 4z m-630 -237 c112
-61 140 -74 200 -88 105 -24 132 -45 133 -101 0 -20 -38 -53 -61 -53 -69 0
-388 148 -403 186 -25 64 55 98 131 56z m901 -15 c7 -6 12 -24 10 -41 -5 -53
-74 -93 -293 -171 -61 -22 -101 -15 -117 20 -15 34 -2 72 31 89 16 9 60 22 99
31 38 9 95 31 126 50 77 46 108 51 144 22z m642 -367 c24 -24 26 -77 3 -102
-22 -24 -77 -24 -103 2 -43 43 -11 120 50 120 17 0 39 -9 50 -20z"/>
</g>
</svg>
