<?xml version="1.0" standalone="no"?>
<!DOCTYPE svg PUBLIC "-//W3C//DTD SVG 20010904//EN"
 "http://www.w3.org/TR/2001/REC-SVG-20010904/DTD/svg10.dtd">
<svg version="1.0" xmlns="http://www.w3.org/2000/svg"
 width="102.000000pt" height="60.000000pt" viewBox="0 0 102.000000 60.000000"
 preserveAspectRatio="xMidYMid meet">

<g transform="translate(0.000000,60.000000) scale(0.100000,-0.100000)"
fill="#ffffff" stroke="none">
<path d="M285 593 c-38 -10 -47 -24 -29 -44 10 -11 25 -19 35 -19 10 0 26 -12
35 -26 16 -24 16 -27 -4 -62 l-21 -37 -74 -1 c-117 -1 -190 -53 -217 -156 -28
-100 42 -209 153 -239 65 -17 131 4 189 62 26 26 48 55 48 64 0 8 7 15 15 15
8 0 15 -9 15 -20 0 -11 7 -23 16 -27 11 -4 13 -13 9 -34 -6 -26 -4 -29 19 -29
20 0 26 5 26 23 0 14 12 32 31 46 28 21 31 27 25 63 -6 38 -3 45 75 149 74 99
99 120 99 86 0 -7 -20 -29 -43 -49 -79 -66 -96 -178 -39 -263 30 -44 117 -95
161 -95 90 0 176 67 201 155 34 122 -58 243 -192 249 l-53 3 -22 54 c-29 70
-29 87 1 95 56 14 81 -11 47 -45 -25 -25 -27 -41 -6 -41 23 0 55 37 55 64 0
49 -64 70 -121 41 -26 -14 -29 -21 -27 -53 l3 -37 -157 -3 -157 -3 -17 26
c-21 32 -5 55 37 55 15 0 31 5 34 10 14 22 -89 38 -150 23z m399 -141 c2 -4
-27 -49 -65 -100 -62 -82 -72 -92 -94 -86 -15 4 -32 1 -40 -6 -13 -11 -18 -5
-36 36 -12 27 -31 72 -44 101 -13 28 -21 54 -17 57 8 9 290 7 296 -2z m-283
-117 c22 -50 39 -102 39 -117 0 -42 -26 -35 -35 9 -9 47 -30 91 -62 124 -21
23 -23 29 -12 53 7 14 17 25 22 23 5 -1 27 -43 48 -92z m-150 25 c18 -10 18
-13 -10 -62 -16 -28 -37 -55 -45 -60 -9 -5 -16 -20 -16 -33 0 -25 33 -38 87
-35 86 6 102 -6 71 -53 -48 -74 -137 -97 -213 -54 -146 82 -90 299 78 306 16
0 37 -4 48 -9z m660 -21 c38 -27 69 -88 69 -136 0 -52 -37 -113 -85 -140 -126
-71 -273 46 -235 187 11 42 63 104 82 98 11 -4 38 -77 52 -140 7 -30 33 -38
42 -13 4 8 1 21 -5 29 -17 21 -51 127 -45 138 10 16 92 1 125 -23z m-572 -43
c12 -18 21 -48 21 -66 l0 -33 -47 7 c-73 10 -82 25 -49 80 15 25 33 46 41 46
7 0 23 -15 34 -34z"/>
</g>
</svg>
