<?xml version="1.0" standalone="no"?>
<!DOCTYPE svg PUBLIC "-//W3C//DTD SVG 20010904//EN"
 "http://www.w3.org/TR/2001/REC-SVG-20010904/DTD/svg10.dtd">
<svg version="1.0" xmlns="http://www.w3.org/2000/svg"
 width="110.000000pt" height="72.000000pt" viewBox="0 0 110.000000 72.000000"
 preserveAspectRatio="xMidYMid meet">

<g transform="translate(0.000000,72.000000) scale(0.100000,-0.100000)"
fill="#4a4545" stroke="none">
<path d="M658 693 c-23 -40 -38 -123 -38 -209 0 -82 -13 -122 -54 -172 -32
-37 -70 -42 -86 -13 -14 28 -14 29 23 45 51 21 77 60 77 117 0 38 -4 51 -22
63 -12 9 -30 16 -40 16 -32 0 -86 -58 -104 -113 -18 -56 -39 -87 -61 -87 -19
0 -16 105 6 212 19 93 14 129 -21 136 -31 6 -55 -50 -61 -147 -6 -98 -21 -135
-67 -175 -38 -31 -75 -34 -90 -5 -9 16 -7 35 10 89 25 81 28 118 11 159 -25
59 -131 79 -139 25 -2 -15 7 -24 38 -38 37 -16 40 -21 40 -55 0 -21 -9 -64
-20 -96 -32 -94 -22 -142 35 -169 39 -19 90 -8 134 29 16 14 34 25 40 25 19 0
12 -46 -9 -65 -11 -10 -34 -39 -50 -63 -24 -36 -30 -56 -30 -99 0 -45 4 -58
26 -78 36 -33 66 -31 102 5 35 35 57 112 47 169 -5 33 -3 42 16 60 30 27 36
27 69 -9 38 -40 83 -40 136 0 21 16 42 30 46 30 4 0 19 -12 33 -26 45 -45 117
-21 145 47 16 37 40 34 53 -6 14 -44 36 -65 69 -65 40 0 85 46 93 96 4 21 14
45 23 52 9 7 11 12 4 12 -6 0 -26 16 -43 35 -26 28 -40 35 -69 35 -32 0 -39
-5 -59 -40 -24 -43 -39 -50 -47 -22 -18 58 -35 82 -57 82 -48 0 -61 -40 -27
-83 23 -29 25 -55 6 -79 -15 -21 -37 -23 -54 -6 -18 18 -14 126 8 214 30 121
25 194 -15 194 -6 0 -18 -12 -27 -27z m-128 -241 c-1 -26 -27 -55 -44 -49 -17
7 -12 31 12 59 17 20 32 15 32 -10z m428 -85 c2 -10 1 -30 -2 -43 -5 -19 -12
-25 -29 -22 -26 4 -36 50 -16 74 16 19 43 14 47 -9z m-668 -215 c0 -42 -21
-79 -38 -68 -16 10 -15 41 3 76 21 41 35 37 35 -8z"/>
</g>
</svg>
