<?xml version="1.0" standalone="no"?>
<!DOCTYPE svg PUBLIC "-//W3C//DTD SVG 20010904//EN"
 "http://www.w3.org/TR/2001/REC-SVG-20010904/DTD/svg10.dtd">
<svg version="1.0" xmlns="http://www.w3.org/2000/svg"
 width="256.000000pt" height="231.000000pt" viewBox="0 0 256.000000 231.000000"
 preserveAspectRatio="xMidYMid meet">

<g transform="translate(0.000000,231.000000) scale(0.100000,-0.100000)"
fill="#86c19e" stroke="none">
<path d="M1200 2302 c0 -4 -16 -14 -36 -21 -48 -17 -111 -81 -135 -137 -25
-60 -25 -157 0 -217 23 -54 76 -109 134 -139 59 -31 174 -31 234 0 98 51 153
139 153 247 0 107 -45 184 -142 240 -53 31 -67 35 -134 35 -40 0 -74 -4 -74
-8z m148 -87 c145 -61 165 -247 36 -338 -35 -24 -52 -29 -103 -30 -53 0 -68 4
-104 29 -130 92 -112 275 33 338 45 20 92 20 138 1z"/>
<path d="M655 1670 c231 -231 422 -415 424 -409 5 15 -809 829 -829 829 -8 0
174 -189 405 -420z"/>
<path d="M1880 1675 c-228 -228 -411 -418 -407 -422 4 -4 198 183 430 415 232
232 415 422 407 422 -8 0 -202 -187 -430 -415z"/>
<path d="M237 1302 c-10 -10 -17 -21 -17 -24 0 -4 -30 -69 -66 -145 -36 -76
-82 -172 -101 -213 -20 -41 -40 -76 -44 -78 -22 -9 -7 -41 22 -51 38 -13 51
-5 70 42 7 18 21 44 31 60 19 26 22 27 116 27 53 0 102 -4 109 -8 7 -4 24 -33
38 -64 28 -61 39 -70 73 -57 39 15 42 6 -144 397 -30 62 -54 117 -54 122 0 16
-15 12 -33 -8z m51 -227 c13 -29 21 -59 17 -64 -8 -14 -102 -14 -110 0 -9 13
44 119 59 119 6 0 22 -25 34 -55z"/>
<path d="M2123 1289 c-10 -10 -13 -75 -13 -255 0 -203 2 -244 15 -254 11 -9
46 -11 124 -8 92 4 117 8 165 32 57 28 112 84 122 124 4 12 10 22 15 22 11 0
12 167 2 172 -5 2 -18 21 -29 43 -25 47 -89 99 -142 116 -57 18 -244 24 -259
8z m207 -80 c151 -32 199 -201 87 -306 -54 -51 -196 -73 -217 -34 -5 11 -10
85 -10 170 0 192 6 199 140 170z"/>
<path d="M1229 1159 c-13 -13 -18 -27 -14 -39 4 -11 -1 -30 -9 -42 -21 -30
-20 -61 3 -89 16 -20 28 -24 70 -23 35 0 52 -4 56 -14 4 -11 8 -12 20 -2 12
10 13 16 4 26 -6 8 -9 23 -6 34 7 27 -24 27 -41 0 -25 -40 -87 -16 -80 31 3
24 18 35 60 44 36 7 48 47 23 75 -23 26 -60 25 -86 -1z m61 -29 c0 -11 -6 -20
-14 -20 -18 0 -29 16 -21 30 11 18 35 11 35 -10z"/>
<path d="M655 450 c-230 -231 -416 -423 -412 -427 8 -7 847 825 847 839 0 5
-3 8 -8 8 -4 0 -196 -189 -427 -420z"/>
<path d="M1470 862 c0 -14 839 -846 847 -839 7 8 -825 847 -839 847 -5 0 -8
-3 -8 -8z"/>
<path d="M1094 224 c3 -9 6 -29 6 -45 0 -16 5 -29 10 -29 6 0 10 20 10 45 0
35 -4 45 -16 45 -11 0 -14 -5 -10 -16z"/>
<path d="M1149 219 c-8 -16 -8 -28 0 -45 14 -31 48 -31 62 0 14 30 -3 66 -31
66 -11 0 -24 -10 -31 -21z m48 -15 c8 -21 -13 -42 -28 -27 -13 13 -5 43 11 43
6 0 13 -7 17 -16z"/>
<path d="M1252 228 c-30 -30 -2 -86 38 -73 19 6 25 22 20 55 -4 28 -37 39 -58
18z m41 -21 c3 -8 1 -20 -4 -28 -11 -19 -34 3 -26 25 8 20 23 21 30 3z"/>
<path d="M1347 233 c-13 -12 -7 -44 8 -49 12 -5 13 -10 4 -20 -9 -11 -8 -14 3
-14 7 0 28 19 46 42 33 44 35 63 3 34 -16 -15 -19 -15 -24 -1 -7 15 -28 20
-40 8z"/>
<path d="M1414 185 c-4 -9 -2 -21 4 -27 15 -15 44 -1 40 19 -4 23 -36 29 -44
8z"/>
</g>
</svg>
