<?xml version="1.0" standalone="no"?><svg viewBox="0 0 554.667 405.333" xmlns="http://www.w3.org/2000/svg" xmlns:xlink="http://www.w3.org/1999/xlink"><style>:root>svg{display:none}:root>svg:target{display:block}</style><svg version="1.0" viewBox="0 0 256 217" id="about-heading" xmlns="http://www.w3.org/2000/svg"><g fill="#86c19e"><path d="M42 5C27.9 7 14.2 18.1 8.2 32.4c-3.2 7.6-3.4 8.5-3 18 .3 8.8.7 10.9 3.4 16.6 1.7 3.6 5.2 8.8 7.7 11.6 4.4 4.9 6 6.1 17.7 13.6 8.9 5.8 9.6 7.3 10.3 21.8.8 15.2 3.5 23.6 10.3 31.9 5.5 6.7 9 9.4 17.4 13.4 6.1 3 7.2 3.2 17.5 3.1 9 0 11.8-.4 15.6-2.1 4.9-2.2 16.5-9.8 17.5-11.4.3-.5 3.2-3.2 6.5-5.9 5.6-4.7 6.4-5 11.6-5 4.4 0 6.7.7 10.9 3 8.4 4.9 9.7 7.9 10.5 24 .6 12.1 1 14.2 3.7 20 1.7 3.6 4.9 8.7 7.2 11.3 5.1 5.8 14.4 12.1 19.1 13 1.9.4 5.2 1.1 7.4 1.5 6.3 1.2 19.8-.5 26.1-3.3 7.3-3.2 17.1-13.1 21.5-21.5 3-5.9 3.3-7.5 3.7-17 .4-10.1.3-10.9-2.8-18.2-4-9.6-10.4-16.8-20.1-22.8-4-2.5-9.1-6.3-11.4-8.5l-4.2-4-.6-12.9c-.8-17.6-3.4-24.9-12.5-34.7-5.1-5.6-8.3-7.9-14.1-10.7-7.3-3.5-8-3.6-18.6-3.6-10.6-.1-11.3.1-18.5 3.5-4.7 2.3-10.1 6-14.5 10C122.4 77.3 121.3 78 115.8 78c-6.5 0-15.4-4.5-18.8-9.6-2.2-3.3-2.5-5.1-3.1-17.3-.7-12.4-1-14.2-3.9-20.5-4.2-9.3-14.2-19.1-23.1-22.7-7.1-3-16.5-4-24.9-2.9zm19.4 13.6c8.2 3.3 15.2 10.1 18.5 18.1 1.8 4.7 2.5 8.7 3.1 20.7.5 8.3.7 15.3.4 15.8-.3.4-1.2.8-2 .8-4 0-16.4 6.5-22.1 11.6-3.4 2.9-6.6 5.4-7.2 5.4-.6 0-2.8-1.5-4.8-3.3-2.1-1.8-6-4.7-8.8-6.5-13.4-8.4-17.1-12.6-20.6-23-3.8-11.3-.6-23.3 8.4-32.3C36 16.3 49 13.6 61.4 18.6zM180.6 68c9 4.1 14.6 11 17.5 21.4 2.1 8 2.1 8.2.3 15.5-3.1 12.7-11.9 21.5-24.4 24.6-7 1.7-7.1 1.7-21.5-1.1-14.3-2.8-14.4-2.8-20-1-4 1.2-7.6 3.5-12.6 7.9-14.5 12.7-15.3 13.2-23.3 15.2-6.6 1.6-8.3 1.7-12.4.7-13-3.4-22.6-11.9-25.8-23-2.2-7.3-2.1-12.1.1-20.1 1.6-5.5 2.8-7.4 7.9-12.5 9.3-9.3 21.3-12.8 31.5-9.1 2.3.8 7.9 1.9 12.5 2.5 13.2 1.8 16.6.4 31-12.7 13.3-12.2 24.9-14.6 39.2-8.3zm27.9 60c1.6 1.7 5.8 4.9 9.4 7.2 12.8 8.2 16.2 11.9 19.7 21.4 3 8.4 3 12.6.1 20.8-4.6 12.5-11.8 18.8-24.3 21.1-12.4 2.4-22.7-.6-30.7-9-6.7-6.9-8.9-13.9-9.8-31-.6-10.5-.5-14.3.4-15.1.7-.7 4.9-2.6 9.4-4.4 6.1-2.4 9.7-4.6 14-8.6 3.2-2.9 6.5-5.3 7.4-5.4.8 0 2.8 1.4 4.4 3z"/><path d="M40.5 30.5c-13.7 7.4-15.4 25.1-3.2 34.7 3.5 2.8 5 3.3 10.7 3.6 7.8.5 10.6-.7 16.4-6.7 2.9-3 4.1-5.1 4.6-8.5 1.4-9.5-.9-15.4-8.4-21.6-3.9-3.2-15.3-4-20.1-1.5zm14.6 12.4c4.1 4.2 3.9 8-.6 12-4.5 3.9-6.5 3.9-10.9-.3-4.4-4.1-4.5-6.5-.5-11.1 4-4.5 7.8-4.7 12-.6zM160.1 78.5C151.4 81.2 147 87.8 147 98c0 7.6 1.7 10.9 8.1 16 4.6 3.7 5.6 4 11.1 4 7.7 0 13.4-3.2 17.7-9.9 2.6-4 3.1-5.8 3.1-10.7 0-3.9-.6-6.8-1.7-8.4-3.7-5.6-7.9-9.1-12.7-10.5-5.9-1.8-6.8-1.8-12.5 0zm12.4 13.1c1.4 1.5 2.5 3 2.5 3.5 0 .4.3 1.4.6 2.2.3.8-.8 3-2.6 5.1-3.9 4.4-7.5 4.7-11.9 1-4.1-3.4-4.2-7.5-.2-11.5 3.8-3.8 8.3-3.9 11.6-.3zM83.4 98.8c-3.8 1.3-8.9 5.4-11.5 9.1-2 3-2.4 4.8-2.4 10.7 0 6.2.3 7.5 2.8 10.7 5.1 6.8 8.9 8.9 15.9 9 10.9.2 18.7-5.7 20.7-15.5 1.8-8.9-.5-14.9-8.1-21.1-2.8-2.3-4.8-2.9-9.4-3.2-3.3-.3-6.8-.1-8 .3zm11.1 13.3c4.7 4.1 4.9 8.6.4 12.3-4 3.4-7.8 3.3-11.1-.2-4.5-4.7-4.5-6.8 0-11.2 2.2-2.2 4.7-4 5.5-4 .9 0 3.2 1.4 5.2 3.1zM199.6 148c-3.5 1.1-10.4 7.6-11.8 11-.5 1.3-.9 5.3-.9 8.8 0 7.5 2.6 12.2 9.2 16.8 3.3 2.3 5.1 2.8 10.3 2.8 5.2.1 6.9-.4 10.3-2.6 2.3-1.5 5.4-4.4 7-6.4 2.5-3.3 2.8-4.6 2.8-10.9 0-6.3-.4-7.7-2.9-11.3-1.6-2.3-4.4-5.2-6.3-6.3-3.8-2.4-13.1-3.4-17.7-1.9zm11.2 11.6c3 2 5.4 7 4.7 9.4-.9 2.7-6.2 7-8.7 7-1.2 0-3.6-1.1-5.5-2.6-4.7-3.6-4.6-8 .2-12.3 4-3.5 6-3.8 9.3-1.5z"/></g></svg><svg version="1.0" viewBox="0 0 260 272" id="portfolio-company_1" xmlns="http://www.w3.org/2000/svg"><g fill="#fff"><path d="M69 1.8c-2.5.9-5.1 2.1-5.8 2.5-3 2 0 9.1 5.1 11.9 1.2.7 4.6 1.5 7.6 1.8 5.7.5 5.7.5 9.2 8.2l2.1 4.7-5.4 9.3c-2.9 5.1-5.6 10-6 11-.9 2.3-1.2 2.3-7.8-.4-4.4-1.7-7.6-2.2-16-2.2-9.5 0-11.3.3-18.5 3.2-15.2 6-25.8 17.4-31 33.3-2.8 8.6-2.9 14.3-.8 26.4C5.1 130.3 23 147 43.6 150.6c19.7 3.4 41.1-6.1 52.1-23.4 1.9-3 4.1-5.2 5.1-5.2 2.1 0 13.5 3.5 16.2 5 3.6 1.9 1.6 9-2.5 9-1.8 0-2.6 2.5-1.2 3.9 1.8 1.8 14.2 1.4 15.8-.5 1.1-1.3.8-1.9-1.6-3.8-3.7-2.9-2.6-4.9 4.6-8.5 9.1-4.5 12.5-14.2 8-22.9l-1.9-3.8 22-29.4c12.2-16.2 22.4-29.6 22.8-29.8.9-.3 4 7.1 4 9.6 0 1.1-1.4 2.5-3.2 3.4-9.8 4.7-20.2 17-24.7 29.1-4.4 12.1-3.5 26.8 2.6 39.4 4.1 8.7 14.9 19.1 24.3 23.5 37.1 17.6 78.9-13 73-53.5-2.9-20.3-16.7-36.2-37-42.7-5.4-1.7-17-2.3-22-1.2-4.9 1.2-6.5.5-7.3-3.1-.2-1.2-2.7-8.6-5.5-16.4-5.6-16.1-5.6-15.8 2.7-18.8 6.3-2.2 13.4-2 15.6.5 1.6 1.8 1.7 2.4.5 6.1-1.2 3.7-5.4 7.9-7.8 7.9-1.9 0-3.4 3-2.8 5.5.8 3.1 4.1 3.3 9.6.5 11.3-5.7 12.2-21.8 1.7-27.5-5.2-2.7-14.6-1.8-23.1 2.4-8.8 4.3-9.7 6.1-6.8 14.5 1.2 3.5 2.2 6.9 2.2 7.5 0 .8-11.8 1.1-42.5 1.1H94l-2.6-5.5c-1.4-3.1-2.3-6.4-2-7.3 1.3-3.7 7.6-6.7 15.4-7.2 5.6-.4 7.8-.9 8.6-2.2.8-1.3.7-2.1-.4-3.3-3.6-3.6-35.6-4.8-44-1.7zm106.7 35.9C175.1 39.9 140 87 139 87c-.4 0-1-.9-1.3-2-.5-1.8-1.4-2-8.1-2-6.2 0-7.8.3-8.3 1.6-.4 1.1.2 2.3 1.6 3.4 1.5 1.1 2.2 2.5 1.9 4-.6 4.4-2.8 3.3-5.3-2.7-3.8-8.7-4.1-9.4-6.4-14.6-1.2-2.7-3.5-8.1-5.1-12-1.6-4-4.5-10.8-6.4-15.2C95.9 34.7 92 36 137.1 36c36.8 0 39.1.1 38.6 1.7zm-82.7 7c.7 2.1 2.5 6.5 4.1 9.8 1.5 3.3 4.9 11.2 7.4 17.5 2.6 6.3 5.6 13.2 6.6 15.2 1.1 2.1 1.9 4.6 1.9 5.8 0 1.7-.6 2-4.5 2-4.1 0-4.5-.2-5-2.8-2.7-12.5-9-23.4-18.3-31.7l-4.5-4.1 4.3-7.7c2.3-4.2 4.7-7.7 5.4-7.7.7 0 1.8 1.7 2.6 3.7zM61.8 59.1c8 2 8.1 2.2 1.1 14.5-3.4 6-7 12.2-7.9 13.9-.9 1.6-3.1 3.7-5 4.6-6.3 3-7.7 7.8-3.7 12.4 1.6 1.9 3.4 2.7 6.9 3 2.5.3 6.4 1.1 8.5 1.9 2.1.7 5.8 1.9 8.3 2.6 2.5.7 5.4 1.6 6.5 2 1.1.5 4.4 1.6 7.3 2.5 2.8.9 5.2 1.9 5.2 2.2 0 1.4-6.6 9.6-10.2 12.8-8.3 7.1-17 9.9-29.2 9.3-7.6-.3-10.1-.9-15.6-3.5-21.1-10.2-29.8-35.1-19.5-56 8.6-17.5 28.4-26.7 47.3-22.2zm157.3.3c7.6 2.3 13 5.5 18.6 11.2 12.2 12.2 15.6 31.2 8.3 46.8-3.6 7.5-12.1 16.1-19.9 19.9-6.3 3-7.2 3.2-18.1 3.2-11 0-11.8-.1-18.2-3.3-14-7-23.8-22.3-23.8-37.2 0-9.1 4.3-20.5 10.5-27.7 3.9-4.6 12.9-10.8 14.4-9.8.6.3 1.5 2 2 3.8.5 1.8 2.9 9 5.4 16.1 3.4 9.8 4.3 13.5 3.6 15.3-1.1 3.1.8 7.2 3.8 7.9 3.6 1 7.3-.4 8.3-3.1 1.1-2.9-.2-7.3-2.4-8.1-1.6-.6-3.3-4.4-8.1-18.4-2-5.8-4.1-11.6-4.8-12.9-1-1.9-.8-2.5.8-3.7 2.5-1.8 13.6-1.8 19.6 0zM82 70.8c5 5.2 9.4 13.3 10.5 19.4l.7 3.8H76.6c-9.1 0-16.6-.3-16.6-.6C60 91.7 75.3 66 76.2 66c.7 0 3.3 2.2 5.8 4.8zm56 17.9c0 1.5-5.2 7.3-6.1 6.7-1.1-.6-.3-4.1 1.3-6.2 1.1-1.2 4.8-1.7 4.8-.5zm-45.2 8.8c1.4.5 1.6 4.1.2 5-.8.5-23-2.7-29-4.2-2.5-.6-2.5-.6.5-1.2 3.1-.7 26-.3 28.3.4zm21.2.3c0 1.3-5 8.2-6 8.2-2.7 0-4-1.5-4-4.4 0-1.8.3-3.6.7-3.9.9-1 9.3-.9 9.3.1zm-35.8 9.7c14.2 2.4 14 2.3 13.6 4.8-.4 2.8-3.3 3.3-9 1.4-2.4-.8-7.7-2.5-11.8-3.7-4.1-1.3-7.9-2.7-8.4-3.2-1.5-1.3 5.4-1 15.6.7zm30.7 8.7c2.1 4.9 1.3 6.7-2.1 5.1-1.3-.6-3.1-1.4-4-1.7-2.1-.6-2.4-4.6-.6-6.4 2.4-2.4 4.8-1.3 6.7 3zM81 159.9c-9.7 3.1-14.2 8.5-14.8 17.7-.5 8.2 2.2 14.4 8.2 18.2 3.4 2.2 5.2 2.6 11.1 2.6 6.8 0 10.1-1 13.7-4.1 1.4-1.2 1.5-1.9.5-3.4-1.5-2.4-2.3-2.4-7.2.1-4.4 2.3-7.1 2.5-11.2.9-9.8-3.7-12-17.2-3.8-23.5 4.1-3.1 13.2-3.5 14.1-.7 1.6 5.4 5.9 7 8.2 3.3 3.7-6.1-9.7-14-18.8-11.1zM163.6 160.5c-9.1 3.2-13.6 9.5-13.6 18.9 0 7.3 3.1 13.3 8.7 16.7 5.4 3.2 16.2 3.2 21.6 0 4-2.5 4.6-4.1 2.2-6.1-1.2-1-2.3-.8-5.8.9-4.9 2.4-7.3 2.6-11.4 1-4.2-1.6-7.2-4.8-8.3-8.9-1.4-5.3-.2-9.7 3.7-13.6 3-3 4-3.4 8.9-3.4 4.3 0 5.6.4 6 1.7 1.2 3.8 2.2 4.8 5 4.8 2.6 0 2.9-.4 3.2-3.3.4-4.4-1.8-6.8-8.1-8.7-6.1-1.8-7.1-1.8-12.1 0zM0 162.9c0 2.3.5 3 2.3 3.3 2.1.3 2.2.8 2.5 10.8.3 12.3-.1 14.6-2.8 15.3-1.4.3-2 1.3-2 3.1v2.6h10.6c10.7 0 13.1-.6 17.2-4.3 3.2-3 3.1-9.8-.3-12.5-3-2.4-3-2.7-.5-5.4 4.4-4.7 1.2-12.8-5.8-14.8-2-.5-7.6-1-12.4-1H0v2.9zm21 5.1c2.5 2.5 2.5 3.5-.1 6.1-1.4 1.4-3 1.9-5.7 1.7-3.4-.3-3.7-.6-4-3.6-.2-1.9-.1-4 .2-4.8.8-2.2 7.2-1.8 9.6.6zm.8 15.2c1.6 1.6 1.5 6.3 0 7.6-2.3 1.7-7.8 2.5-9.3 1.2-1.5-1.2-2.1-8.1-.8-9.3 1.1-1.2 8.8-.8 10.1.5zM41.7 160.7c-.4.3-.7 1.7-.7 3 0 1.6.6 2.3 2 2.3 1.1 0 2 .4 2.1 1v23.9c-.1.5-1 1.1-2.1 1.4-1.4.3-2 1.4-2 3.1 0 2.6.1 2.6 7.5 2.6 6.1 0 7.7-.3 8.2-1.7.4-1.1-.3-2.3-2-3.7-2.7-2.1-2.7-2.4-2.7-13.9 0-11.6 0-11.8 2.5-12.7 2.7-1 3.2-2.9 1.3-4.8-1.3-1.3-13-1.7-14.1-.5zM108.7 160.7c-1.5 1.4-.6 4.4 1.6 5.2 2.8 1.1 12.7 17.5 12.7 21.2 0 2.7-2.2 5.9-4.1 5.9-.5 0-.9 1.1-.9 2.5 0 2.5.1 2.5 8 2.5 7.7 0 8-.1 8-2.3 0-1.6-.9-2.8-2.5-3.5-4.2-1.9-3.4-6.6 3-16.9 3.1-4.8 6.5-9.1 7.6-9.5 1.4-.5 1.9-1.5 1.7-3-.3-2.1-.8-2.3-6.7-2.3-5.1 0-6.6.4-7.5 1.8-.9 1.5-.7 2.1.9 3.3 2 1.5 2 1.5-.7 6.2-1.4 2.5-3.1 4.8-3.6 5-.6.2-1.6-1-2.4-2.5-.8-1.5-2-3.8-2.8-4.9-1.2-1.9-1.1-2.4.3-3.9 1.3-1.2 1.5-2.1.7-3.6-.9-1.5-2.2-1.9-6.9-1.9-3.2 0-6.1.3-6.4.7zM195.2 161.2c-1.9 1.9-1.4 3.8 1.3 4.8 2.5.9 2.5 1.1 2.5 12.6 0 11.3-.1 11.8-2.6 14.1-4.5 4.2-3 4.8 12.2 4.8h13.9l.2-3.5c.1-1.9-.3-4.3-.8-5.3-1.4-2.6-5.3-1.9-5.7 1-.4 2.7-4.3 4-8.1 2.7l-2.6-.9V179c0-11.7.1-12.5 2-12.9 2.7-.5 3.6-2.1 2.4-4.3-.8-1.4-2.2-1.8-7.2-1.8-3.6 0-6.8.5-7.5 1.2zM231.7 160.6c-1.4 1.5-.6 4.6 1.3 5.1s2 1.4 2 13.2c0 11.5-.2 12.7-2 13.9-1.1.7-2 2.1-2 3.2 0 1.9.7 2 14.6 2h14.5l-.3-5.3c-.3-4.8-.5-5.2-2.9-5.5-2.2-.3-2.9.2-3.7 2.7-.9 2.7-1.6 3.1-4.6 3.1-5.8 0-6.6-.7-6.6-6.1v-4.8l5.3-.3c4.8-.3 5.2-.5 5.5-3 .3-2.6.1-2.7-5-3l-5.3-.3-.3-4.8-.3-4.7h5.5c4.9 0 5.5.2 5.8 2.2.2 1.8 1 2.3 3.3 2.3 2.9 0 3-.1 3-5v-5l-13.6-.3c-7.4-.1-13.8.1-14.2.4zM13.3 207C6 208.7 0 215.9 0 222.7c0 4.5 3.4 10.8 7.2 13.6 3.7 2.8 13.4 3.5 17.5 1.4 4.4-2.3 5.7-4.2 3.8-5.7-1.2-1-2.2-.9-5.1.5-4.9 2.3-10.9 1.5-14.2-1.9-2.1-2-2.6-3.5-2.6-7.6 0-4.2.5-5.5 2.9-8 2.6-2.8 3.5-3.1 8-2.8 4.3.3 5 .6 5.3 2.5.5 3.6 5.3 4.1 6.6.6.7-1.8-1.6-5.8-4.1-7.1-2.9-1.5-8.5-2.1-12-1.2zM49.5 206.9c-4.8 1.2-8.2 3.9-10.5 8.5-2.4 5-2.5 9.1-.6 13.7 2.7 6.5 8.1 9.9 15.4 9.9 5.4 0 10-2.5 13.6-7.3 2.8-3.8 2.8-12.9.1-17.5-3.5-5.8-11.2-8.9-18-7.3zm9.6 6.1c2.5 1.4 4.9 6.2 4.9 9.9 0 8.5-7.7 13.5-15.4 10-6.2-2.8-7.4-14.1-2.1-18.6 2.8-2.5 9.1-3.1 12.6-1.3zM77.3 208.6c-.4 1.1.2 2.3 1.7 3.4 2.2 1.7 2.3 2.1 1.6 11.1-.6 7.9-1 9.7-2.8 11-1.4 1.1-1.9 2.2-1.5 3.3 1 2.5 12 1.9 12.5-.7.2-1-.5-2.5-1.6-3.5-1.7-1.4-1.9-2.6-1.5-7.5.6-6.8 1.5-6.5 6.4 2.1 3.1 5.5 3.2 5.6 4.8 3.5.9-1.1 2.8-4.2 4.4-6.7 1.5-2.6 3.2-4.4 3.7-4.1.6.3 1 3.2 1 6.4 0 4.9-.4 6.1-2.2 7.3-1.4 1-1.9 2-1.5 3.2.6 1.4 1.7 1.6 6.4 1.4 5.1-.3 5.8-.6 6.1-2.5.2-1.4-.3-2.3-1.6-2.7-1.6-.6-2-2-2.5-10.4-.6-9.1-.5-9.8 1.5-11.3 3.1-2.4 1.7-4.9-2.6-4.9-3.8 0-5 1.3-10.1 10.7-1.6 2.9-3.3 5.3-3.9 5.3-.6 0-2.9-3.5-5.2-7.8-4-7.6-4.2-7.7-8.3-8-3.1-.2-4.3.1-4.8 1.4zM124 208.9c0 1 .7 2.4 1.5 3.1 2.3 1.9 2.2 20.5-.1 21.8-.9.5-1.4 1.8-1.2 2.8.2 1.5 1.3 2 5.4 2.2 6.4.4 8.7-1.6 5.4-4.6-3.3-3-2.2-5.6 2.5-6.3 5.7-.7 8.5-2.5 10.1-6.6 1.2-2.8 1.3-4.2.3-7-1.7-5.4-5.8-7.3-15.6-7.3-7.5 0-8.3.2-8.3 1.9zm17.2 4.8c3.5 3.1 1.3 8.8-3.7 9.3-4.2.5-4.5.1-4.5-5.5V212h3.2c1.7 0 4 .7 5 1.7zM159.3 208.6c-.4 1 .1 2.2 1.1 3 2 1.4 1.9 1.9-2.1 12.9-1.4 3.8-3.5 8-4.6 9.2-3.1 3.5-1.6 5.3 4.3 5.3 5.7 0 7.4-1.8 4.6-4.9-.9-1-1.4-2.5-1-3.5.9-2.3 12.2-2.3 13.1 0 .3.8.1 2-.6 2.7-.6.6-1.1 2.1-1.1 3.4 0 2.1.4 2.3 5.4 2.3 6.4 0 7.5-1.4 4.3-5.8-3.2-4.3-8.5-20.4-6.9-20.9.6-.3 1.2-1.6 1.2-2.9 0-2.4-.2-2.4-8.5-2.4-7 0-8.7.3-9.2 1.6zm11.2 9c2.3 5.5 2 6.4-2.1 6.4h-3.6l.7-3.8c.6-3.3 2.1-6.2 3.1-6.2.2 0 1.1 1.6 1.9 3.6zM191.3 208.7c-.4 1.1.1 2.2 1.5 3.1 2 1.3 2.2 2.3 2.2 10.5 0 7.9-.3 9.4-2.1 11.3-3.4 3.6-1.9 5.4 4.6 5.4 4.3 0 5.7-.4 6.2-1.7.4-1.1-.1-2.2-1.5-3.1-1.9-1.2-2.2-2.4-2.2-8.3 0-3.8.4-6.9.9-6.9s4.5 4.5 8.7 10c4.3 5.5 8.4 10 9 10 2 0 2.4-2.7 2.4-14.7 0-9.6.3-11.8 1.7-12.8.9-.7 1.4-1.9 1-2.9-.9-2.3-11.5-2.3-12.4.1-.4 1.1.1 2.2 1.5 3.1 1.8 1.2 2.2 2.4 2.2 6.8 0 7.2-1.4 7-7.3-.9-7.8-10.3-8.2-10.7-12.1-10.7-2.5 0-3.9.5-4.3 1.7zM230.3 208.6c-.4 1 .4 2.4 2 3.7 3.8 3.2 9.7 13.7 9.7 17.3 0 2.1-.7 3.6-2.2 4.6-1.4.9-1.9 2-1.5 3.1.5 1.3 1.9 1.7 6.6 1.7 6.6 0 8.5-1.8 5.1-4.7-3.2-2.8-2.5-7.4 2.3-15.2 2.6-4.4 4.9-7.1 6-7.1 1.1 0 1.7-.8 1.7-2.5 0-2.4-.3-2.5-5.5-2.5-5.9 0-7.9 1.6-5.6 4.4 1 1.1.8 2.3-.9 5.5-1.1 2.3-2.4 4.1-2.8 4.1-.5 0-1.9-1.8-3.1-4-1.8-3.3-2-4.4-1.1-5.5.7-.8 1-2.2.6-3-.8-2.2-10.4-2.1-11.3.1zM77.8 251.2c-2.8 2.4-2.8 4.5.3 8.8 3.5 4.9 3.5 8.3 0 8.8-2.2.3-2.3.1-1.8-2.8.6-2.6.4-3.1-1-2.8-2.7.5-3.8 3.3-2.5 6.2 1 2.2 1.8 2.6 5.1 2.6 7.6 0 10-7.1 4.5-13.1-2.7-2.8-3.2-5.9-.9-5.9.8 0 1.5.4 1.5 1 0 .5.7 1 1.5 1 1.8 0 2-2.1.3-3.8-1.6-1.6-5-1.5-7 0zM151.4 251.2c-2.3 1.1-4.4 4.7-4.4 7.6 0 2.6 2 4.2 5.2 4.2s3.7 1.9 1 4.3c-1.1 1-2.6 1.4-4.2 1-1.9-.5-2.2-.3-1.7 1.1.4 1 .7 2 .7 2.2 0 .2 1 .4 2.3.4 4.6 0 9.7-7.9 9.7-15.1 0-4.8-4.4-7.7-8.6-5.7zm4.4 5.6c.3 2.8 0 3.2-2.2 3.2-3.2 0-3.9-1.2-2.4-4.5 1.6-3.5 4.2-2.8 4.6 1.3zM164.8 251.1c-1 .5-1.8 1.9-1.8 2.9 0 2.3 1.8 2.7 2.6.5.4-.8 1.2-1.5 2-1.5 2.7 0 1.4 4.8-2.6 9.6-2.2 2.7-4 5.6-4 6.5 0 1.8 2.8 2.9 7.8 2.9 2.9 0 3.3-.3 3-2.3-.2-1.5-.9-2.1-2.2-1.9-4.7.8-4.9-.7-.7-5.3 2.9-3.1 4.1-5.3 4.1-7.4 0-4.3-4.2-6.4-8.2-4zM181.3 251.2c-3 1.5-6.3 8.5-6.3 13.5 0 4.4 2.3 7.3 5.7 7.3 2.6 0 7.3-5.4 7.3-8.4 0-3.1-3.3-6-5.9-5.1-2.5.8-2.7-.3-.5-3.3 1-1.5 2.2-2.1 3.4-1.7 2.3.7 3.8-1.4 1.9-2.6-1.8-1.1-2.8-1-5.6.3zm2.7 12.6c0 3-1.6 5.2-3.7 5.2-1.6 0-1.7-5.2-.1-6.8 2.1-2.1 3.8-1.4 3.8 1.6zM141.3 251.7c-.7.2-1.3 1.4-1.3 2.6 0 1.2-.7 5.3-1.5 9.2-.9 4.5-1.1 7.3-.5 7.9 1.8 1.8 3.2-1.1 5.1-10 2.1-9.9 1.9-11.2-1.8-9.7zM90.2 253.7c.2 1 1 1.8 1.8 1.8s1.6-.8 1.8-1.8c.2-1.2-.3-1.7-1.8-1.7s-2 .5-1.8 1.7zM89.2 258.7c-1.5 2.8-2.5 8.9-1.7 11.2.5 1.7 1.4 2 5.2 1.8l4.7-.2 1.2-4.8c.7-2.7 1.5-5.1 1.8-5.4 1.2-1.2 2.6 1 2 3.3-.9 3.7.3 7.4 2.5 7.4 1.1 0 2.1-.6 2.4-1.3.3-.9.9-.9 2.6.1 2.8 1.6 5.6 1.5 7.1-.3 1.2-1.4 1.5-1.4 3.6 0 4.2 2.7 7.5 1 4.2-2.3-.9-.9-.5-1.8 2.1-4 3.8-3.1 4-6.5.4-7-2.8-.4-6.8 3.7-7.6 7.7-.4 2.1-1.3 3-3.2 3.4-3.2.6-4.2-1.3-2.9-5.2.8-2.1 1.6-2.5 3.7-2.3 2.9.3 3.5-.9 1.3-2.7-.8-.7-2.5-.9-4.1-.5-2.5.6-4.2 3.2-5.9 8.6-1.1 3.5-2.9 1.9-2.3-2.1.7-5.3-.2-6.3-5.4-5.9-4.3.3-4.4.4-5.7 5-1.9 6.9-4.8 6.4-3.3-.5.6-2.6.5-3.9-.4-4.7-1-.9-1.6-.7-2.3.7z"/></g></svg><svg version="1.0" viewBox="0 0 354 304" id="portfolio-company_2" xmlns="http://www.w3.org/2000/svg"><g fill="#fff"><path d="M160.8 4c-3.9 3.9-4 4.2-3.6 9.2.7 7.1 4.7 10.8 11.6 10.8 5.1 0 9.2-2.1 9.2-4.7 0-1.1-.6-1.4-2.2-.8-8.1 2.5-12.4 1.7-14.2-2.7-3.1-7.3 4.6-14.5 11.5-10.8 1.5.9 2.1.7 2.6-.6.9-2.4-2.3-4.4-7-4.4-3.3 0-4.6.7-7.9 4zM185.5 1c-.3.5-.9 5.8-1.2 11.6-.6 10.1-.5 10.6 1.3 10.2 1.4-.2 2-1.3 2.2-4.1.3-3.1.7-3.7 2.6-3.7 2.6 0 4.6 1.7 4.6 4 0 2.5 2.7 5.7 3.9 4.5.6-.7.6-2.6-.1-5.9-.8-3.6-.7-5.5.1-6.8 1.8-2.8 1.3-5.3-1.5-8.2-2.1-2-3.7-2.6-7-2.6-2.3 0-4.6.4-4.9 1zm9.6 4.6c1.9 2.3-.1 4.9-3.7 4.9-3 0-4.2-2-3-5.1.7-1.9 5-1.8 6.7.2zM209.6 13c-6.8 10.9-7.6 15.2-1.9 9.8 2-1.8 2.8-2 6.1-1.2 3 .7 3.8 1.4 4 3.6.3 2.6 2.5 3.8 3.6 2 .5-.8-1.9-17.9-2.9-21.3-1.2-3.6-3.3-1.9-8.9 7.1zm6.4 2c0 1.9-.5 3-1.4 3-2.2 0-2.8-1.7-1.4-4 1.8-2.8 2.8-2.5 2.8 1zM134.4 8.1c-1.8.5-3.4 1.5-3.6 2.2-.6 1.5 5.1 20 6.5 20.8.5.4 2.4.2 4.1-.3 12.6-4.3 12-20.9-.9-23.1-1.6-.3-4.4-.1-6.1.4zm9.8 5.9c2.5 2.6 2.9 3.6 2.4 6.3-.6 3.3-3.8 6.7-6.1 6.7-.8 0-2.3-3.1-3.5-7.1-1.9-5.9-2-7.3-.9-8 2.5-1.6 5-.9 8.1 2.1zM232.1 11.1c-.5 1.3-2 5.3-3.5 8.8-1.4 3.6-2.6 7.3-2.6 8.3 0 2.7 2.9 2.2 3.6-.7 1-3.9 2.8-4.9 6.9-3.5 2 .7 3.9.9 4.3.6 1.1-1.1-1.4-4-3.9-4.6-1.7-.4-2.4-1.3-2.4-3 0-2.1.4-2.5 3-2.3 1.7.1 4.2.4 5.8.8 4.3 1.1 3.5-2.1-1-4.1-6.9-2.9-9.2-2.9-10.2-.3zM119.4 15.4c-.3.9.6 3.9 2.1 6.7 1.4 2.8 2.4 5.3 2.1 5.6-.3.3-3.7-1.1-7.5-3.1-7.2-3.8-10.1-4.4-10.1-2.4 0 1.7 8.8 18.6 10 19.3 2.4 1.5 2.1-3-.4-7.7-1.5-2.8-2.5-5.3-2.2-5.6.3-.3 4 1.2 8.1 3.3 10.2 5.3 10.9 4.3 5.1-7.3-4.8-9.6-6.2-11.3-7.2-8.8zM252 18.2c0 .7 1.1 2.1 2.5 3.3l2.5 2-4.5 7.9c-2.9 5-4.2 8.3-3.6 8.9 1.4 1.4 2.7.2 6.2-6.1 5-8.9 5.6-9.4 9-7.7 1.7 1 3 1.1 3.4.5.9-1.5.1-2.3-6.4-6.3-6.1-3.8-9.1-4.6-9.1-2.5zM90.7 31.7c-.3.5.6 4.7 2 9.4 1.4 4.6 2.7 9.4 3 10.6.3 1.5 1.3 2.3 2.5 2.3 1.7 0 2-.5 1.5-2.9-1-4.8 5.7-9.3 9-6 1.2 1.2 3.3.4 3.3-1.2 0-1-16.5-11.9-19.1-12.6-.9-.3-1.9-.1-2.2.4zm8.8 7.6c1 .8 1.5 1.9 1.1 2.5-1 1.7-3.3 1.5-4-.4-1.4-3.6-.3-4.4 2.9-2.1zM268.6 38.7c-3.6 4.3-6.5 8.5-6.6 9.3 0 1.9 7.7 8 10.2 8 2.8 0 2.2-1.5-1.8-4.9-2.5-2-3.5-3.5-3.1-4.5 1-2.7 3.5-2.9 6.3-.7 5.4 4.3 7.6 1.4 2.3-3-2.8-2.2-3-2.8-2-4.7 1.5-2.8 2.5-2.8 6.5.3 3.7 2.8 5.6 3.2 5.6 1 0-1.4-8.4-8.5-10.1-8.5-.5 0-3.8 3.5-7.3 7.7zM174 40.6c-10.4 3.7-18.7 13.4-20.9 24.3-2.8 13.6 5.1 28.2 18.8 34.4 6.4 3 17.8 3 24.2 0 20.7-9.4 25.8-35.4 10.1-51.1-8-8-22-11.3-32.2-7.6zm5.9 17.8c.9 1.1.3 3.6-3.2 11.8-2.4 5.6-4.7 11.1-5 12-.7 1.9-4.7 2.5-4.7.8 0-1.1 4.8-13.3 6.6-16.9 1.8-3.3 1-4.1-4-4.1-4.8 0-7.4-1.8-5.4-3.8 1.7-1.7 14.3-1.6 15.7.2zm22.2 2.2c2 2.2 2.4 3.5 2.3 8.9-.1 5.3-.5 7-2.7 9.8-3.3 4.3-8 6.5-10.2 4.7-1.8-1.5-.3-4 2.4-4 1.8 0 4.1-1.8 4.1-3.2 0-.4-1.5-.8-3.4-.8-7.6 0-11.5-9.6-6.1-15.4 3.4-3.7 10.1-3.7 13.6 0z"/><path d="M191.7 63.8c-2.2 2.4-2.1 4.5.1 6.5 3.7 3.4 8.2 1.5 8.2-3.3 0-4.9-5.1-6.8-8.3-3.2zM77.6 42.9c-.9 1.4.4 4 2.5 5.2 2.4 1.2 2.4 4.1.1 6.2-2.6 2.3-4.1 2.1-7.4-1-2.2-2.1-3.1-2.4-4-1.5-1 1 .4 2.9 6.2 8.7 4.1 4.1 8.2 7.5 9.2 7.5 2.5 0 2.3-.9-1.4-4.7L79.6 60l3.2-3.2 3.2-3.2 3.5 3.4c3 2.9 3.5 3.1 4.1 1.6.5-1.3-1.2-3.7-6.7-9.2-7.5-7.5-8.3-8.1-9.3-6.5zM283.6 53.3l-7.8 7.2 2.3 2.9c3 3.8 8.1 5.8 12.4 5 4.9-.9 9.5-6.3 9.5-11.1 0-4.2-4.3-11.3-6.9-11.3-.9 0-5.1 3.3-9.5 7.3zm11.2-1.1c2.1 2.1 1.4 7.7-1.3 10.3-2.7 2.7-5.1 3.1-9 1.3-3.6-1.6-3.1-3.4 2.3-8.3 5-4.7 6.1-5.2 8-3.3zM33.9 97.9c-9.1 1.8-22.1 11.6-27.5 20.8C-4.4 136.8-.8 160 12.8 160c3.1 0 3.4-.2 2.7-2.3-2.2-7.3-2.6-11.2-2.3-20.2.4-8.3.9-11 3.2-15.7 2.5-5.4 9.7-12.8 12.3-12.8 1.3 0 2 3.5 3.4 17 1.3 13.3 2.5 24.8 3.9 37.5.6 5.5 1.5 14.5 2.1 20 3.5 34.4 4 38.4 4.9 39 .6.4 18-4.2 18.8-5 .3-.3 3.1-13.7 7.7-36.5 1.4-6.9 2.9-14.3 3.5-16.5.5-2.2 1.9-8.5 3-14s2.5-11.8 3-14c4.4-19 7.9-36.8 7.5-37.6-.9-1.3-7.1-1.1-8.2.3-.6.7-1.8 5.6-2.7 10.8-1 5.2-2.6 14-3.7 19.5-1 5.5-2.4 12.5-2.9 15.5-1.7 9.5-5 27.3-5.9 32.5-.5 2.7-1.2 6.7-1.6 8.7-.3 2.1-1 4-1.5 4.3-1.2.7-1.5-1.1-3-15-.6-6.1-1.5-14.6-2.1-19-1.6-13.4-2.8-23.5-3.9-34-1.6-13.9-3-23.6-3.6-24.6-.6-1-8.3-1-13.5 0zM94.7 107.1c-4 2.3-5.9 9.8-3.6 14.2 2.4 4.7 5.1 6.7 9 6.7 3 0 4.2-.6 5.8-2.9 6-8.4-2.9-22.8-11.2-18zM184.5 115.4c-6.6 1.2-5.9 0-8 12.8-.4 2.5-1.2 3.9-2.5 4.3-2.4.8-2.6 3.3-.4 4.2 1.4.5 1.5 1.7.9 8.7-2.4 28.4-5 36.6-11.6 36.6-4.6 0-5.1-2.4-3.4-15.5 2.5-19.6 1.8-26.3-3.5-31-3.2-2.9-11.8-2.8-15.9.2-3.7 2.8-3.7 2.8-4.4.2-.6-2.1-1-2.1-7.9-1.5-4 .4-7.6 1.2-7.9 1.8-.4.6-1 5.4-1.3 10.7-1.3 18.5-2.7 32.6-3.7 36.3-2 7.7-8.6 12.2-11.9 8.3-1.3-1.6-.5-18.7 2.1-44.3.5-5.2.6-9.8.3-10.4-.6-1-14-.5-15 .5-.5.5-1.8 15.8-3.4 39.2-1.2 18.7-.1 26.3 4.5 30.2 4.7 4.1 12.7 2.3 18.5-4.3 3.5-4.1 4-4.2 4-.9 0 1.5.6 2.5 1.5 2.5 1.7 0 12.2-2.7 13.3-3.4.5-.3 1.4-6.5 2.1-13.8 3.1-35.1 4-38.9 8.7-41 2.3-1.1 2.9-.9 4.6 1.2 1.8 2.2 1.9 3.4 1.4 9.5-.4 3.8-.9 12.6-1.3 19.5l-.6 12.6 3.5 3.7c2.7 2.9 4.3 3.7 6.9 3.7 5.1-.1 11.1-3.3 14.8-7.9l3.4-4.2 2.6 3.2c2.4 2.8 3.3 3.2 7.3 3.2 5.6-.1 11.5-3 15.6-7.7 3.4-3.9 4.6-4.4 5.9-2.3 2.8 4.6 11.5 6.1 17.9 3.1 1.9-.9 4.8-3.2 6.5-5.2l3.1-3.5 2.4 2.6c3 3.2 6.2 4.1 11.5 3.3 4.3-.7 11.4-4.8 12.3-7.2.8-2 2.6-1.7 5.3.7 1.4 1.4 4 2.4 7.1 2.7 4.6.4 7.3-.4 15.5-4.6.4-.2.7.3.7 1.2 0 .8-2.7 2.9-5.9 4.6-6.7 3.6-9.4 6.2-10.8 10.5-3.3 9.8 9.8 14 21.3 6.9 5.3-3.2 8-7.6 9.8-15.7 1-4.7 1.6-5.4 5.8-7.7 2.5-1.4 5.5-3.4 6.7-4.4 1.9-1.8 2.1-1.8 5 .3 2.3 1.7 4.4 2.1 10.3 2.1 8.4 0 14.2-2.2 17.6-6.5 2.7-3.4 2.9-6 .5-5-10.4 4.4-14.6 4.4-16.4-.2-1.3-3.5-.6-5.1 2.8-5.9 6.2-1.3 13.2-4.7 16-7.7 6-6.3 6.8-10.9 2.8-14.7-2.1-2-3.5-2.3-9.9-2.3-13.2 0-22.3 6.4-26.7 18.8-1 3-1.9 7.5-1.9 10 0 2.6-.4 5.5-1 6.5-1.1 2.1-7.8 6.5-8.6 5.7-.3-.3 1.1-9.1 3.2-19.6 2.1-10.5 3.5-19.4 3.1-19.7-1-1.1-14-.4-15.4.7-.8.7-1.8.7-3.2 0-1.1-.6-3.9-1.1-6.3-1.1-14.8 0-25.1 11.7-26.7 30.2-.6 6.7-1.1 8.4-3 9.9-4.3 3.5-8.1 1.8-8.1-3.6 0-1.7 1.1-9.8 2.5-17.9 1.4-8.1 2.5-15.4 2.5-16.2 0-2.2-14.6-2-15.8.2-.9 1.6-1.1 1.6-3.3 0-4.7-3.3-14.5-1.4-20.8 4.1-6.7 5.7-12.1 19.2-12.1 30.4 0 4.9-.4 6.1-2.9 8.8-3.3 3.6-7.5 4.1-9 1.2-.8-1.3-.5-6.7.9-18.3 2.8-22.6 2.5-21.6 6.3-22 4.4-.4 5.2-3.8.9-3.8-3.6 0-4.1-1.1-3.1-6.5.5-2.2.8-5.7.9-7.8 0-4.2.1-4.2-9.5-2.3zm160.3 18.9c.9 4.8-2.9 10.1-9.4 13.2-5.3 2.5-6.2.8-2.9-5.7 3.6-7.2 6.3-10 9.5-9.6 1.5.2 2.6 1 2.8 2.1zm-53.4 1.3c.9.8 1.4 2.5 1.1 3.7-.2 1.2-1.3 6.7-2.5 12.2-1.7 8.5-2.4 10.4-5 12.7-8 7.3-13.3-.2-9.6-13.7 1.8-6.8 4-10.8 7.6-13.9 3.6-3 6.2-3.3 8.4-1zm-58.9 1.7c2 1.5 1.9 6-.5 21.1-1.2 8.2-2.6 11.2-6.2 13.9-4 3-7.4 1.7-8.9-3.3-2.4-8 2.4-25.5 8.3-30.5 3.4-2.8 4.7-3.1 7.3-1.2zm51.5 45.9c0 3.9-3.7 9-6.3 8.6-3.6-.5-3.3-4.1.8-7.7 4.2-3.7 5.5-3.9 5.5-.9zM126.4 216.5c-6.8 4-10 10.9-8.7 18.8.8 5.4 7 12.1 12.7 13.7 6.1 1.7 9.7.8 18.6-4.5 9.9-6 13.1-6 23 0 4.1 2.5 9 4.8 10.8 5.1 4.6.9 10.1-.9 17.4-5.7 7.8-5 12-5.2 19.8-.7 9.7 5.5 12.8 6.8 15.9 6.8 6.1 0 13.3-4.5 16.1-10 6.1-11.9-2.7-26-16.2-26-3.4 0-6.1 1-12.1 4.6-11.4 6.8-13.7 6.8-24.8.4-8.5-4.9-9.4-5.2-14.4-4.8-4 .3-6.8 1.4-10.7 3.9-11.6 7.6-14.8 7.7-25.3.9-9-5.8-15.4-6.6-22.1-2.5zm12.9 7.7c3.3 1.7 4.6 3.9 4.7 7.9 0 8.8-12.4 11.9-16.5 4-2.2-4.4-1.9-6.9 1.4-10.2 3.1-3.1 6.7-3.7 10.4-1.7zm51.9.8c4.8 3.7 4.1 11.8-1.3 14.5-4 2.1-6.3 1.9-9.8-1.1-8.9-7.4 2.1-20.6 11.1-13.4zm50.9.9c5.7 5.8 2.1 14.6-6 14.6-5 0-7.9-2.6-8.8-7.8-.5-3.1-.1-4 2.5-6.7 4.1-4 8.3-4.1 12.3-.1zM249.1 262.2c-1.3.7-3.3 2.5-4.4 4-1.7 2.3-1.9 3.1-.9 5.3 1.6 3.6 4.7 4.4 10.4 3 3.6-1 5.1-1 6.3-.1 3.4 2.4-2.1 7.6-8 7.6-4 0-2.5 2.4 1.6 2.8 4.4.3 7.8-1.5 10.1-5.4 1.6-2.7 1.7-3.6.7-5.8-1.6-3.4-5-4.2-11.1-2.6-3.7.9-5.3.9-6.1.1-2.2-2.2 1.1-5.4 6.6-6.6 1.6-.3 2.7-1.1 2.4-1.8-.5-1.7-4.7-2-7.6-.5zM115.3 264.2c-2.3 2.8-9.3 16.6-9.3 18.1 0 1.7 6.6 5.7 9.3 5.7.8 0 2.6-.9 4.1-2.1 1.9-1.5 2.6-3 2.6-5.6 0-1.9.9-4.6 1.9-5.9 2.4-3 1.8-5.7-2.1-8.9-3.3-2.8-5.1-3.1-6.5-1.3zm5.5 6.2c.5 2.4-1 3.8-3.1 3-1.7-.6-2.3-3.5-1-4.8 1.2-1.2 3.8-.1 4.1 1.8zM117 278c1.6 1.6 1.8 2.5 1 4-1.3 2.4-3.7 2.6-6.1.4-1.7-1.5-1.7-1.8-.2-4 1.9-2.9 2.7-3 5.3-.4zM229.3 272c-2.4 1.1-4.3 2.6-4.3 3.5 0 1.9 6.9 19.4 8 20 .9.5 11-3.1 12.4-4.5.7-.7.6-1.4-.1-2.1-.9-.9-2.3-.7-5.4.5-4.1 1.7-4.4 1.7-5.6 0-1.9-2.7-1.6-3.4 2.1-4.9 1.9-.8 3.8-2 4.2-2.6 1.2-2-1.9-2.8-5.4-1.3-4 1.6-5.2 1.2-5.2-2.1 0-1.7.9-2.7 4-3.9 4.3-1.7 5.5-4.6 1.8-4.5-1.3 0-4.2.9-6.5 1.9zM130.6 277.2c-3.9 9-5.9 14.8-5.3 15.4 1.5 1.6 3.5-1 6.1-7.7 1.6-4.1 3.3-7.8 3.7-8.4 1.5-1.5 1-4.5-.7-4.5-.9 0-2.4 2.2-3.8 5.2zM143.2 278c-7 4.3-7.7 13.6-1.5 19 3.1 2.7 4.1 3.1 8.6 2.8 3.8-.2 5.2-.7 5.2-1.8s-1.5-1.6-5.1-2c-5.9-.6-8-2-8.9-6-1.7-7.8 6.8-12.7 13.7-7.9 2.1 1.5 3.3 1.8 4 1.1 2.3-2.3-4.6-7.2-9.9-7.2-1.5 0-4.3.9-6.1 2zM207.5 279c-.5.8 2.7 16.6 4.1 20.3.7 1.9 3 2.1 8.8.8 4.5-1.1 6.4-2.7 5.1-4-.6-.6-2.6-.6-5.4 0-5.3 1.2-5.3 1.2-7.5-9.1-1.6-7.2-3.6-10.4-5.1-8zM164 281.7c0 .9 1.2 3.7 2.7 6.2 2.2 3.8 2.7 5.6 2.4 10.3-.2 4.5.1 5.8 1.2 5.8 1.8 0 2.7-2.1 2.7-6.4 0-3.1 4.2-10.4 6.9-12.1 1.5-.9 1.4-3.5-.2-3.5-.7 0-2.6 1.3-4.2 3-1.6 1.6-3.2 3-3.6 3-.3 0-1.8-1.8-3.3-4-2.8-4.2-4.6-5.1-4.6-2.3zM185.5 283.5c-3 3-3.5 4.3-3.5 8 0 3.8.6 5.2 3.6 8.5 3.1 3.4 4.2 4 7.6 4 4.7 0 9.8-2.4 9.8-4.6 0-1.3-.6-1.5-2.7-.9-7.1 1.7-8.8 1.7-11.6-.5-3.7-2.9-3.8-8.6-.2-12 2.2-2 3.1-2.2 8-1.6 4.5.5 5.5.3 5.5-.9 0-2.1-3.3-3.5-8.4-3.5-3.9 0-5.1.5-8.1 3.5z"/></g></svg><svg version="1.0" viewBox="0 0 416 134" id="portfolio-company_3" xmlns="http://www.w3.org/2000/svg"><g fill="#fff"><path d="M37 1c-.8.5-2.4 1-3.4 1-4.1 0-18.2 7.9-23.4 13C-2 27-3.5 41.8 6.9 46.5c5.2 2.3 7.4 1.5 6.4-2.2-3.2-11.5 4.1-27.9 15.1-33.5C44.2 2.7 59 5.3 62.9 16.9c2.3 7-2.8 18.2-10.4 22.7-4.5 2.6-8.5 3.2-8.5 1.1 0-.6.7-4.4 1.5-8.2 4.6-21.2 4.7-19.8-1.7-19.1-11 1.4-12.9 1.8-13.7 3.4-.8 1.6-1.8 6-7.2 31.7C20 62 19.3 65.6 17 76c-3.9 18.4-5 23.5-5 23.8 0 .1 4.4.1 9.7 0l9.7-.3.8-4c.4-2.2 1.6-8.3 2.7-13.5 1.2-5.2 3.1-14 4.2-19.5 2.8-13.1 3-13.5 8.2-13.5 9.2 0 13.2 5.2 13.2 17-.1 9.9-2 16.4-6.2 20.6-3.9 4-7.3 4.3-12.2 1.3-1.8-1.1-3.6-1.8-3.8-1.5-.3.3-.8 2.4-1 4.8-1.2 10.5 11.1 14.8 24.5 8.6 6.2-2.9 10.4-8.6 15.1-20.2 1.8-4.4 2.5-18.4 1.2-23.3-1.4-5.2-5.5-10.1-9.9-12l-3.4-1.4 4-4.3c7.1-7.7 9.3-14.7 7.3-22.3-1.9-7.1-6.8-11.6-16.1-15C55.9-.2 39.2-.4 37 1zM135.9 5.5c-3.7 2-4.4 4.4-2.1 7.5 1.9 2.5 1.9 2.5-.2 4.2-2.1 1.7-2.1 1.8-.2 3.3 2.8 2.1 9.9 2 11.9-.3 2.4-2.6 2.1-5.8-.5-7.7-2.1-1.5-2.2-1.7-.5-2.6 2.4-1.4 2.1-3.4-.8-4.7-3.3-1.5-4.4-1.5-7.6.3zM141 17c0 .5-.9 1-2 1s-2-.5-2-1c0-.6.9-1 2-1s2 .4 2 1zM152.3 4.7c-.9.3-1.3 3-1.3 8.9 0 8.3 0 8.4 2.5 8.4s2.5-.1 2.5-8.4c0-8.4-.7-9.9-3.7-8.9zM161.6 5.3c-1.4 1-1.6 2.6-1.4 8.7.3 7.3.4 7.5 2.8 7.5 2.1 0 2.6-.6 3-3.4l.5-3.5 2.8 3.8c2 2.6 3.5 3.6 5 3.4 2-.3 2.2-1 2.5-7.9.2-5.8-.1-7.9-1.2-8.8-2.1-1.8-3.6-.5-3.6 3 0 3.6-1.4 3.7-3.6.4-2.3-3.6-4.7-4.7-6.8-3.2zM183.9 6.3c-2.8 1.9-3.5 3-3.7 6.5-.3 3.4.2 4.7 2.2 6.7 2.9 2.9 8.9 3.4 12 1 2.6-2 1.4-5-1.7-4-4.6 1.4-6.1 1.1-7.1-1.8-.9-2.4-.7-3.1.9-4.3 1.1-.8 2.6-1.1 3.5-.8 5.4 2.4 8.3-1.4 3.1-4-4-2.1-5.2-2-9.2.7zM201 4.8c-.6.2-1 4.1-1 8.8v8.5l6.3-.3c4.7-.2 6.2-.7 6.2-1.8 0-1-1.2-1.6-3.2-1.8-3.5-.3-4.6-2.2-1.4-2.2 3.4 0 3.5-4 .1-5.3-1-.4-.9-.6.6-.6 2.8-.1 5.1-2.8 3.7-4.2-1-1-9.2-1.8-11.3-1.1zM241.2 5c-1.2.5-2.7 2.1-3.4 3.5-1 2.2-.8 3 1.1 5.6 1.7 2.3 2 3.4 1.2 4.2-2.3 2.3-1.2 3.7 3.2 3.7 5.5 0 8.7-3 8.7-8.2 0-5-.8-6.6-4.1-8.3-3.2-1.7-3.5-1.7-6.7-.5zm5.3 5c.3.6-.1 1.3-1 1.6-1.9.8-3 0-2-1.5.8-1.4 2.2-1.4 3-.1zm-1.5 7c0 .5-.4 1-1 1-.5 0-1-.5-1-1 0-.6.5-1 1-1 .6 0 1 .4 1 1zM257.7 5.2c-4 1.4-3.2 4.3 1.2 4.3 4.8 0 4.8 1.7.1 5.5-2.2 1.7-4 4-4 5.1 0 1.7.8 1.9 7 1.9s7-.2 7-1.9c0-1.1-.9-2.1-2.1-2.4l-2.1-.6 2.2-2.9c2.7-3.7 2-6.6-2-8.7-3.3-1.7-3.5-1.7-7.3-.3zM276.8 5.5c-8.1 4.5-5.7 16.5 3.4 16.5 5.9 0 9-5.7 5.1-9.5-1.4-1.4-1.4-2-.4-3.7.7-1.1.9-2.4.4-2.8-1.7-1.7-5.9-1.9-8.5-.5zm4.2 11c0 .8-.7 1.5-1.5 1.5s-1.5-.7-1.5-1.5.7-1.5 1.5-1.5 1.5.7 1.5 1.5zM102.4 5.9c-3.6 1.5-6.4 6-6.4 10.2 0 10.5 15 13.8 19.5 4.2 2.1-4.3 1.3-9.2-1.9-12.2-2.6-2.5-8-3.5-11.2-2.2zM225.9 7.6l-2.4 2.6 2.3 1.5c1.7 1.2 2.2 2.5 2.2 6 0 4.2.1 4.4 2.8 4.1 2.7-.3 2.7-.4 2.7-7.3 0-3.9-.1-7.6-.3-8.3-.7-2.1-4.7-1.3-7.3 1.4z"/><path d="M314 7.6c-1.4.3-4.3.7-6.5.9-5.5.8-6.4 1.5-7.4 6.6-1.7 8.2-5.1 24.4-7.1 33.9-2.4 10.7-3.8 17.6-5 23.5-1 5.1-10.6 14.5-16.7 16.3-6.7 2-12 1.6-14.8-1.3-2.1-2-2.5-3.4-2.5-8.4 0-17.2 9.3-39.1 16.6-39.1 3.2 0 3.8 1.6 3.6 8.2l-.3 5.8h3.4c5 0 7.1-2.9 7.1-9.5s-2.4-9.7-9.1-11.6c-9.3-2.6-22 2.4-29.3 11.6-6.5 8.1-12 23.8-12 34.1 0 4.4-4.6 11.4-9.4 14.3-1.8 1.2-3.7 2.1-4.1 2.1-.9 0-.2-5.8 2.4-17.5 1-5 2.9-13.7 4.1-19.5 1.2-5.8 2.6-12.1 3-14 .4-1.9 1.1-5 1.5-6.8l.8-3.3-9.9.3-9.8.3-1.8 9c-1 4.9-2.2 10.8-2.7 13-.5 2.2-1.6 7.6-2.5 12-2.2 10.3-3.3 13.4-6.4 16.7-3.4 3.7-7.9 3.8-9.2.4-1.1-3.1-.6-6 7-41.5 1.1-5.2 2-9.6 2-9.8 0-.1-4.2-.3-9.4-.3-8.1 0-9.5.2-10 1.7-.3 1-1.5 6.5-2.7 12.3-6.1 30.4-5.3 27.8-10.1 32.7-8.4 8.8-21.1 12.1-26.3 6.8-2.2-2.1-2.5-3.3-2.5-9.2.1-17.3 9.7-38.9 16.9-38.1 2.5.3 2.6.6 2.9 7l.3 6.8h3.3c4.8 0 6.8-2.8 6.8-9.1 0-6.6-2.3-9.9-8.6-11.8-3.9-1.2-5.7-1.3-10.8-.2-6.7 1.4-8.5 2.2-14.3 6.7-8.3 6.5-16.4 25.2-16.5 38 0 3.5-.6 4.7-3.5 7.3-4 3.5-9.4 4.2-11.5 1.5-1.4-1.6-1-4.4 4-27.4 4.4-20.7 5-23.5 5-24.2 0-.5-4.3-.8-9.5-.8H93l-.5 2.7c-.4 1.6-1 4.6-1.5 6.8-1 4.2-2.7 12.2-6.1 29.5-4.2 20.8.6 29.3 15.6 27.7 6.2-.6 8.5-1.8 14.4-7.2 2.9-2.7 4.5-3.6 4.8-2.7 1.2 3.1 5.7 7.2 9.8 8.8 3.3 1.2 6.4 1.5 11.8 1.2 8.8-.6 16.1-3.9 22.7-10.4 5.1-4.9 6-5.3 6-2.5 0 3.7 3.1 9.2 6.3 11.2 4.2 2.7 14.1 2.2 18.5-1 2.9-2 5.2-2.7 5.2-1.5 0 2.1-2.9 4.5-9.4 7.8-10 4.9-13.1 8.8-13.1 16.7 0 6.9 1.7 9.1 8.7 11.5 4.4 1.4 5.8 1.5 11.1.3 5-1 6.9-2.1 10.3-5.4 4-4 8.4-13.2 8.4-17.4 0-4.9 2.2-8.1 7.3-10.7 2.9-1.4 6.7-3.9 8.4-5.7l3.3-3.1 3.7 4.1c4.8 5.1 9.6 6.7 18.7 6.1 8.6-.6 16.9-4.3 23.3-10.5 4.9-4.8 5.3-5 5.3-2.6 0 1 .9 3.7 2 6.1 4.3 9.5 19.1 9.9 29 .6l4.7-4.4 3.1 3.9c4.4 5.5 10.1 7.5 19.5 6.9 8.2-.5 16-3.8 21.4-9 2.7-2.6 3.5-2.9 4.8-1.8.8.7 1.5 1.8 1.5 2.4 0 3.9 9.5 8.6 17.4 8.6 12.6 0 21.9-6 25.1-16.2 1.8-6 1.8-5.8-.4-38.3-.5-7.7-1-14.6-1-15.3-.1-1.5-4.1-1.5-13.1-.1l-6.9 1.2-1.6 5.1c-.9 2.8-2 6-2.4 7.1-.5 1.1-1.5 3.6-2.2 5.5-2.8 7.9-9.9 21.6-11.8 22.7-1.1.7-2.9 3-4 5-3.7 7.3-11.9 12.2-20.2 12.3-7.2 0-9.4-2.3-9.4-10.1v-6.2l5-1.2c11.5-2.6 19.8-9.4 23.5-19.1 3.9-10.4 1.2-17.6-7.4-20.3-9-2.8-22.8 2.3-29.7 11.1-5.7 7.3-10.3 19.3-11.5 30.4-.6 5.9-1.1 7.3-3.9 10.1-2.5 2.5-4.2 3.3-6.9 3.3-6.2 0-6.4-1.6-1.7-23.5 1-5 2.8-13.5 4-19 1.1-5.5 3-14.3 4.1-19.5 3.2-14.7 3.8-17.9 3.2-18.5-.6-.5-1.9-.5-6.2.1zm46.9 34.8c1 2.5-.1 9.2-2.2 12.9-3 5.5-7.7 9.4-13.4 11.1-1.9.6-2.3.3-2.3-1.3 0-5.2 5.8-18.6 9.8-22.6 3.2-3.2 7-3.3 8.1-.1zm33.5 9.8c.3 1.3.9 8.9 1.3 16.9l.6 14.5-2.9 3.3c-2.5 2.7-3.7 3.3-7.7 3.4-4 .2-5.2-.2-6.8-2.2-2.5-3.1-2.4-5.1.4-5.1 5.4 0 8.4-5.3 5.5-9.9-1-1.6-.5-3.4 3-10.9 2.3-5 4.2-9.8 4.2-10.6 0-2.4 1.7-1.9 2.4.6zm-198 59.5c-1.1 4.7-3.8 9.5-6 11-1.8 1.2-2.4 1.1-4.4-.5-3.2-2.6-2.1-6.4 3.2-10.2 5.4-3.9 8.1-4 7.2-.3z"/></g></svg><svg version="1.0" viewBox="0 0 256 187" id="portfolio-heading_1" xmlns="http://www.w3.org/2000/svg"><path d="M225.3 7c-1.2.5-2.9 2.3-3.9 4.1-1.4 2.7-1.4 3.8-.4 7 .7 2.1 1 4.5.7 5.3-1 2.5-6.7 5.5-12.7 6.6-3 .5-8.9 2-13 3.1-4.1 1.2-11.8 3.2-17 4.5-19.4 4.7-26.7 6.6-34.7 9-4.5 1.3-10.6 2.9-13.5 3.4-2.9.5-9 2.2-13.5 3.6-10.8 3.5-14 2.8-16.4-3.5-1.9-5.3-4.2-7.1-8.7-7.1-2.4 0-4.2.8-6.4 3-2.7 2.8-2.9 3.4-2.4 7.8.4 2.6.8 6.5.9 8.7.2 4.4 4.6.2-57.9 55.1C1.8 139.1-.2 141.7 2 148.7c2.7 8.1 7 15.8 9.7 17.5 1.9 1.1 6.3 1.8 13.8 2.3 6.1.3 20.4 1.5 32 2.6 11.6 1.1 26.7 2.3 33.6 2.7l12.7.8 4.6 4.1c9.7 8.5 17.9 9.5 27.5 3.3 6.7-4.2 8.1-7.1 8.1-16.4v-7.5l8.1-9.8c11.1-13.3 34-40.8 47.4-56.7 6.1-7.2 15.7-18.8 21.3-25.9 11.6-14.2 13.9-15.5 16.8-9.4 2.1 4.4 6.4 6.1 11.7 4.5 5.6-1.7 7.7-8.6 4.1-13.7-.9-1.3-2.7-5.1-3.9-8.5-5.9-16-11.7-28.2-14.7-30.9-2.2-1.8-5.9-2.1-9.5-.7zM206 51.4c1.4 1.8 1.2 2.2-7.5 12.6-12.7 15-28.9 34.4-33.5 40-2.5 3-9.5 11.4-15.7 18.7-6.2 7.3-11.9 14.3-12.8 15.7-.9 1.3-3 3-4.6 3.6-4.1 1.7-5.6.1-6.9-7.3-.6-3.2-2.2-8.6-3.4-12-1.3-3.4-2.7-8.2-3.1-10.7-.4-2.5-1.6-6.7-2.7-9.4-1-2.7-2.3-7.2-2.9-10-.6-2.8-1.8-7.3-2.7-10-1.6-4.7-1.6-4.8.6-6.6 2.5-2 15.5-6.5 21.7-7.5 2.2-.4 7.6-1.7 12-3 7.4-2.2 14.7-4.1 31.5-8.1 3.6-.9 10.3-2.8 15-4.4 9.8-3.2 13.3-3.6 15-1.6zM93 89.9c.5 1.1 1 3 1 4.3 0 1.3 1.3 6.2 3 10.8 1.6 4.7 3 9.3 3 10.3s.9 4.3 2.1 7.5c2 5.6 6.6 22.2 7.6 27.4.4 2-.1 3-2.2 4.4-2.4 1.6-3.9 1.6-20.3.5-9.7-.7-23.3-1.9-30.2-2.7-6.9-.7-15.6-1.4-19.5-1.4-8.1-.1-13.8-1.8-14.3-4.1-.2-1.1 6.6-7.8 19.4-19C79.8 94.9 88.1 88 90 88c1.1 0 2.4.9 3 1.9zm37.2 71.1c2.6 2.7 3 3.6 2.5 6.8-1.5 9.4-13.4 9.7-16.2.4-.4-1.5-.1-3.2 1.1-5 3.9-6.1 8-6.7 12.6-2.2z" fill="#86c19e"/></svg><svg version="1.0" viewBox="0 0 260 260" id="portfolio-heading_2" xmlns="http://www.w3.org/2000/svg"><path d="M15.2 3.1C10.4 4.5 3.4 12 2 17c-3.1 11.5 4.8 22.3 18 24.5 4.9.8 9.1 3.9 15.3 11.2 4.4 5.3 4.7 8.9 1.3 13-1.3 1.5-3.3 4.8-4.6 7.3-1.2 2.5-3 5.6-4 7-.9 1.4-2.5 5-3.5 8-.9 3-2.8 8.3-4.2 11.8-5.5 14.2-5.5 46.3.1 60.4 1.3 3.5 3 8.3 3.6 10.8.6 2.5 2.6 7 4.4 10 1.8 3 4 6.9 4.8 8.7 2.3 4.7 7.3 10.7 16.8 20.3 10 9.9 15.6 14.5 21.1 17.2 2.2 1 6 3.2 8.5 4.7 2.5 1.6 6.8 3.5 9.6 4.2 2.9.6 7.8 2.3 11 3.6 7.5 3 23.9 4.7 37.8 3.9 8.7-.5 12.9-1.4 25-5.3 13.6-4.4 18.7-6.8 28.4-13.2 7.1-4.7 7.7-5 10.5-4 1.5.5 5.7 4 9.4 7.7 5 5.1 6.8 7.7 7.5 10.9 1.7 7.4 5.6 12.8 11.4 15.7 6.1 3.1 9.8 3.2 15.3.7 7.9-3.6 13.5-13.1 11.9-20.4-1.6-7.9-8.7-15.1-15.7-16.2-2.3-.4-5.3-1.7-6.7-3-1.4-1.2-3.9-3-5.6-4-3.7-2.1-8.4-9.3-8.4-12.8 0-1.4 1.1-3.8 2.4-5.4 1.3-1.5 3.3-4.8 4.6-7.3 1.2-2.5 3-5.6 4-7 .9-1.4 2.5-5 3.5-8 .9-3 2.8-8.3 4.1-11.7 4.5-11.6 5.6-41 1.9-54-2.9-10.1-6.7-20.9-8.7-24.8-9-17.2-10.4-19-22.8-31.5-10-9.9-15.6-14.5-21.1-17.2-2.2-1-6-3.2-8.5-4.7-2.5-1.6-6.8-3.5-9.6-4.2-2.9-.6-7.8-2.2-10.9-3.5-7.8-3.2-22.6-4.8-37.2-4-10.4.6-13.6 1.2-26 5.3-7.8 2.5-15.3 5.4-16.7 6.3-1.4 1-4.7 2.9-7.5 4.3-2.7 1.3-5.9 3.4-6.9 4.6-3 3.3-7.6 2.7-12.8-1.4-10.5-8.6-11.5-9.8-12.2-15.2C39 8.1 26.5-.3 15.2 3.1zM27 17c2.7 2.7 2.6 7.7-.2 10.7-4.5 4.9-12.8 1.4-12.8-5.4 0-4.4 3-7.3 7.5-7.3 2.2 0 4.3.8 5.5 2zm93 26c2.1 2.1 2.3 3.2 1.4 6.8-.8 2.9-4.2 4.7-12.8 6.6-6.8 1.6-13.3 4.5-17.5 7.7-5.8 4.5-14.5 4.1-15.7-.7-.3-1.3-.4-3-.1-3.7 1.4-3.8 32.7-18.3 40-18.6 1.5-.1 3.6.8 4.7 1.9zm37.4 2.1c12.6 4.6 26.2 12.1 27.1 15 2.3 7.2-8.1 9.9-15.6 4-4.2-3.2-10.7-6.1-17.5-7.7-10.6-2.4-13.3-4.5-13.4-10.2 0-1.9 3.8-5.2 6.1-5.2 1.2 0 7.2 1.8 13.3 4.1zM120 71c2.3 2.3 2.8 11.4.7 14.1-1.9 2.5-6.7 4.6-12.4 5.4-7.9 1-12.2-2-12.3-8.7 0-4.5 2.9-7.1 10.4-9.3 2.8-.9 5.8-2 6.6-2.5 2.4-1.5 4.8-1.2 7 1zm33.3 1.3c8.7 3.1 10.7 5 10.7 9.6-.1 6.6-4.4 9.6-12.3 8.6-5.7-.8-10.5-2.9-12.4-5.4-.7-.9-1.3-4-1.3-6.9 0-4 .5-5.7 2.1-7.3 2.4-2.4 3.1-2.3 13.2 1.4zM65.5 77c2.5 2.7 2.3 8.1-.4 12.2-4.7 7.5-7.1 12.9-9 20.3-2.3 8.9-4.5 11.8-9.2 11.8-3.5 0-5.9-2.3-5.9-5.9 0-3.5 7.8-23.4 12.2-30.9 5.8-10 8.6-11.6 12.3-7.5zm134.9-1.4c4.6 1.8 19.6 36.3 18.2 41.9-1.3 5.1-8.8 5.2-12 .3-.8-1.3-2.2-5.5-3.1-9.4-1-4.6-3.2-9.9-6.1-14.8-5.1-8.5-5.9-13.2-2.9-16.6 1.9-2.1 3.3-2.4 5.9-1.4zM87.8 98c3.1 2.9 3.6 6.2 2.2 13.1-1.8 8.2-4.6 10.9-11.5 10.9-3.7 0-6-.6-7.6-1.9-2.2-1.7-2.3-2.2-1.2-5.7 2-7.1 5.2-14.6 6.9-16.5 2.3-2.6 8.4-2.5 11.2.1zm95.4-.3c1.8 2 7.8 16.6 7.8 18.9 0 5.5-12.5 7.7-17.2 2.9-2.8-2.8-5.4-12.8-4.4-16.9 1.5-5.9 10.2-9 13.8-4.9zm-45.5 14.8c5 2.1 7.2 4.2 9.4 9 2.3 4.9 2.4 9.9.4 15.6-2.1 5.8-4.8 8.5-10.8 10.5-5.8 1.9-11.8 1.4-17.6-1.6-3.2-1.6-4.3-3-6-7.5-2.6-6.8-2.6-11.8-.2-17 2.2-4.9 4.8-7.3 9.8-9.1 5.1-1.8 10.6-1.7 15 .1zm-85.4 28.4c1 1 2.7 5.3 3.8 9.6 1.9 7.4 4.4 12.9 9 20.1 2.7 4.4 2.8 10 .2 12.6-3.5 3.5-6.5 1.8-11.3-6.3-4.5-7.6-13-28.7-13-32.4 0-5.9 6.7-8 11.3-3.6zm34-.4c2.5 2.6 4.7 9.1 4.7 14 0 3-1.6 6.5-3.9 8.2-2.4 1.9-8.5 1.6-10.3-.5-1.8-1.9-7.8-16.5-7.8-18.8 0-5.6 12.5-7.7 17.3-2.9zM189 140c2.6 2.6 2.5 3.4-.6 11.6-3.1 8.4-3.9 9.4-7.3 9.4s-9.8-6.4-10.7-10.7c-.7-3.8 1.8-9.6 4.9-11.1 3.9-1.9 11.5-1.4 13.7.8zm28.8.8c1.9 2.5 1.5 5.1-2.9 16.8-4.9 12.9-6 15.1-9.5 19.3-3.3 4-7.6 4.2-10 .6-2-3.1-1.5-5.5 3-12.9 2-3.2 4.2-9 5.1-12.9.9-4 2.3-8.2 3.1-9.5 2.8-4.2 8.4-4.9 11.2-1.4zm-101.1 30.7c4 1.7 5.3 4.2 5.3 9.9 0 9.5-2.2 10.7-13 7.1-10.4-3.5-13-5.6-13-10.3.1-3.9 1.3-6.1 4.5-8 2.3-1.4 11.4-.7 16.2 1.3zm35-.4c7 2.6 11.6 10.7 7.9 13.8-1.3 1.1-15.1 6.1-16.8 6.1-.4 0-1.7-.9-2.8-2-1.5-1.5-2-3.3-2-7.1 0-6.2 1.2-8.7 5.3-10.4 3.9-1.7 4.8-1.8 8.4-.4zm-63 23.7c11.2 6.1 14 7.4 20 8.8 10.5 2.4 13.2 4.5 13.3 10.1 0 2-3.8 5.3-6.1 5.3-6.9 0-38.8-14.8-40.3-18.6-2.5-6.4 5.5-9.8 13.1-5.6zm90.1 1.5c.7.6 1.2 2.4 1 4.1-.5 5.3-7.4 9.3-29.3 17.1-6.1 2.2-10.1 1.5-11.7-2-1.5-3.4-.2-7.2 3.1-8.9 1.6-.9 6-2.2 9.9-3.1 3.8-.9 9.5-3.1 12.6-5 7.7-4.6 10.8-5.1 14.4-2.2zM243 233c2.4 2.4 2.6 7.7.3 10.2-2.2 2.4-7.7 2.4-10.3-.2-4.3-4.3-1.1-12 5-12 1.7 0 3.9.9 5 2z" fill="#86c19e"/></svg><svg version="1.0" viewBox="0 0 144 256" id="portfolio-heading_3" xmlns="http://www.w3.org/2000/svg"><path d="M48.6 2.2c-.3 1.3-.6 14.9-.6 30.4 0 27.5 0 28.2-2.2 31.4-1.7 2.5-3.5 3.6-7.2 4.5-3.4.9-5.8 2.3-8 4.8-1.7 1.9-4.7 4.5-6.6 5.8-1.9 1.3-4.1 3.2-4.9 4.3-.8 1-2.3 2.6-3.4 3.5-2.4 2-8.5 15-9.8 21.1-.6 2.5-1.5 6.7-2.1 9.5-.7 3.2-1.2 22-1.2 52.5l-.1 47.4 4.4.8c2.5.4 4.9 1.2 5.5 1.8.7.8 1 7.1.8 18.6l-.3 17.5 6.3-.3 6.3-.3.5-66.5.5-66.5 2.9-7.8c3-8.4 8.9-16.7 13.9-19.8 2.2-1.3 5-1.9 9.3-1.9 7.2 0 9.4 1.7 9.4 7.2 0 5.2 2.4 6.8 10.2 6.8 7.6 0 9.8-1.6 9.8-7.2 0-5.1 2.4-6.8 9.6-6.8 4.1 0 6.9.6 9.1 1.9 5 3.1 10.9 11.4 13.9 19.8l2.9 7.8.3 66.8.3 66.7h13.1l-.3-16.9c-.3-18.8.1-20.1 5.5-20.1 1.8 0 3.7-.5 4.4-1.2 1.9-1.9 1.7-90.2-.2-96-.8-2.4-1.7-7-2.1-10.3-.7-6.3-7.7-23.7-9.8-24.4-.7-.2-4.4-3.6-8.3-7.6C114 73 104.7 67 101 67c-.5 0-1.9-1.5-3-3.3-1.9-3-2-5.1-2-31.2 0-15.4-.3-29-.6-30.3C94.8 0 94.8 0 72 0 49.2 0 49.2 0 48.6 2.2z" fill="#86c19e"/></svg><svg version="1.0" viewBox="0 0 102 60" id="shop-rollover" xmlns="http://www.w3.org/2000/svg"><path d="M28.5.7c-3.8 1-4.7 2.4-2.9 4.4 1 1.1 2.5 1.9 3.5 1.9s2.6 1.2 3.5 2.6c1.6 2.4 1.6 2.7-.4 6.2l-2.1 3.7-7.4.1C11 19.7 3.7 24.9 1 35.2c-2.8 10 4.2 20.9 15.3 23.9 6.5 1.7 13.1-.4 18.9-6.2 2.6-2.6 4.8-5.5 4.8-6.4 0-.8.7-1.5 1.5-1.5s1.5.9 1.5 2 .7 2.3 1.6 2.7c1.1.4 1.3 1.3.9 3.4-.6 2.6-.4 2.9 1.9 2.9 2 0 2.6-.5 2.6-2.3 0-1.4 1.2-3.2 3.1-4.6 2.8-2.1 3.1-2.7 2.5-6.3-.6-3.8-.3-4.5 7.5-14.9 7.4-9.9 9.9-12 9.9-8.6 0 .7-2 2.9-4.3 4.9-7.9 6.6-9.6 17.8-3.9 26.3 3 4.4 11.7 9.5 16.1 9.5 9 0 17.6-6.7 20.1-15.5 3.4-12.2-5.8-24.3-19.2-24.9l-5.3-.3-2.2-5.4c-2.9-7-2.9-8.7.1-9.5C80 3 82.5 5.5 79.1 8.9c-2.5 2.5-2.7 4.1-.6 4.1 2.3 0 5.5-3.7 5.5-6.4 0-4.9-6.4-7-12.1-4.1-2.6 1.4-2.9 2.1-2.7 5.3l.3 3.7-15.7.3-15.7.3-1.7-2.6C34.3 6.3 35.9 4 40.1 4c1.5 0 3.1-.5 3.4-1C44.9.8 34.6-.8 28.5.7zm39.9 14.1c.2.4-2.7 4.9-6.5 10-6.2 8.2-7.2 9.2-9.4 8.6-1.5-.4-3.2-.1-4 .6-1.3 1.1-1.8.5-3.6-3.6-1.2-2.7-3.1-7.2-4.4-10.1-1.3-2.8-2.1-5.4-1.7-5.7.8-.9 29-.7 29.6.2zM40.1 26.5c2.2 5 3.9 10.2 3.9 11.7 0 4.2-2.6 3.5-3.5-.9-.9-4.7-3-9.1-6.2-12.4-2.1-2.3-2.3-2.9-1.2-5.3.7-1.4 1.7-2.5 2.2-2.3.5.1 2.7 4.3 4.8 9.2zm-15-2.5c1.8 1 1.8 1.3-1 6.2-1.6 2.8-3.7 5.5-4.5 6-.9.5-1.6 2-1.6 3.3 0 2.5 3.3 3.8 8.7 3.5 8.6-.6 10.2.6 7.1 5.3-4.8 7.4-13.7 9.7-21.3 5.4-14.6-8.2-9-29.9 7.8-30.6 1.6 0 3.7.4 4.8.9zm66 2.1c3.8 2.7 6.9 8.8 6.9 13.6 0 5.2-3.7 11.3-8.5 14C76.9 60.8 62.2 49.1 66 35c1.1-4.2 6.3-10.4 8.2-9.8 1.1.4 3.8 7.7 5.2 14 .7 3 3.3 3.8 4.2 1.3.4-.8.1-2.1-.5-2.9-1.7-2.1-5.1-12.7-4.5-13.8 1-1.6 9.2-.1 12.5 2.3zm-57.2 4.3c1.2 1.8 2.1 4.8 2.1 6.6v3.3l-4.7-.7c-7.3-1-8.2-2.5-4.9-8 1.5-2.5 3.3-4.6 4.1-4.6.7 0 2.3 1.5 3.4 3.4z" fill="#fff"/></svg><svg version="1.0" viewBox="0 0 110 72" id="site-copyright" xmlns="http://www.w3.org/2000/svg"><path d="M65.8 2.7C63.5 6.7 62 15 62 23.6c0 8.2-1.3 12.2-5.4 17.2-3.2 3.7-7 4.2-8.6 1.3-1.4-2.8-1.4-2.9 2.3-4.5 5.1-2.1 7.7-6 7.7-11.7 0-3.8-.4-5.1-2.2-6.3-1.2-.9-3-1.6-4-1.6-3.2 0-8.6 5.8-10.4 11.3-1.8 5.6-3.9 8.7-6.1 8.7-1.9 0-1.6-10.5.6-21.2 1.9-9.3 1.4-12.9-2.1-13.6-3.1-.6-5.5 5-6.1 14.7-.6 9.8-2.1 13.5-6.7 17.5-3.8 3.1-7.5 3.4-9 .5-.9-1.6-.7-3.5 1-8.9 2.5-8.1 2.8-11.8 1.1-15.9C11.6 5.2 1 3.2.2 8.6 0 10.1.9 11 4 12.4c3.7 1.6 4 2.1 4 5.5 0 2.1-.9 6.4-2 9.6-3.2 9.4-2.2 14.2 3.5 16.9 3.9 1.9 9 .8 13.4-2.9 1.6-1.4 3.4-2.5 4-2.5 1.9 0 1.2 4.6-.9 6.5-1.1 1-3.4 3.9-5 6.3-2.4 3.6-3 5.6-3 9.9 0 4.5.4 5.8 2.6 7.8 3.6 3.3 6.6 3.1 10.2-.5 3.5-3.5 5.7-11.2 4.7-16.9-.5-3.3-.3-4.2 1.6-6 3-2.7 3.6-2.7 6.9.9 3.8 4 8.3 4 13.6 0 2.1-1.6 4.2-3 4.6-3 .4 0 1.9 1.2 3.3 2.6 4.5 4.5 11.7 2.1 14.5-4.7 1.6-3.7 4-3.4 5.3.6 1.4 4.4 3.6 6.5 6.9 6.5 4 0 8.5-4.6 9.3-9.6.4-2.1 1.4-4.5 2.3-5.2.9-.7 1.1-1.2.4-1.2-.6 0-2.6-1.6-4.3-3.5-2.6-2.8-4-3.5-6.9-3.5-3.2 0-3.9.5-5.9 4-2.4 4.3-3.9 5-4.7 2.2-1.8-5.8-3.5-8.2-5.7-8.2-4.8 0-6.1 4-2.7 8.3 2.3 2.9 2.5 5.5.6 7.9-1.5 2.1-3.7 2.3-5.4.6-1.8-1.8-1.4-12.6.8-21.4C73 7.3 72.5 0 68.5 0c-.6 0-1.8 1.2-2.7 2.7zM53 26.8c-.1 2.6-2.7 5.5-4.4 4.9-1.7-.7-1.2-3.1 1.2-5.9 1.7-2 3.2-1.5 3.2 1zm42.8 8.5c.2 1 .1 3-.2 4.3-.5 1.9-1.2 2.5-2.9 2.2-2.6-.4-3.6-5-1.6-7.4 1.6-1.9 4.3-1.4 4.7.9zM29 56.8c0 4.2-2.1 7.9-3.8 6.8-1.6-1-1.5-4.1.3-7.6 2.1-4.1 3.5-3.7 3.5.8z" fill="#4a4545"/></svg><svg version="1.0" viewBox="0 0 256 231" id="site-logo" xmlns="http://www.w3.org/2000/svg"><g fill="#86c19e"><path d="M120 .8c0 .4-1.6 1.4-3.6 2.1-4.8 1.7-11.1 8.1-13.5 13.7-2.5 6-2.5 15.7 0 21.7 2.3 5.4 7.6 10.9 13.4 13.9 5.9 3.1 17.4 3.1 23.4 0 9.8-5.1 15.3-13.9 15.3-24.7 0-10.7-4.5-18.4-14.2-24C135.5.4 134.1 0 127.4 0c-4 0-7.4.4-7.4.8zm14.8 8.7c14.5 6.1 16.5 24.7 3.6 33.8-3.5 2.4-5.2 2.9-10.3 3-5.3 0-6.8-.4-10.4-2.9-13-9.2-11.2-27.5 3.3-33.8 4.5-2 9.2-2 13.8-.1zM65.5 64c23.1 23.1 42.2 41.5 42.4 40.9C108.4 103.4 27 22 25 22c-.8 0 17.4 18.9 40.5 42zM188 63.5c-22.8 22.8-41.1 41.8-40.7 42.2.4.4 19.8-18.3 43-41.5S231.8 22 231 22c-.8 0-20.2 18.7-43 41.5zM23.7 100.8c-1 1-1.7 2.1-1.7 2.4 0 .4-3 6.9-6.6 14.5-3.6 7.6-8.2 17.2-10.1 21.3-2 4.1-4 7.6-4.4 7.8-2.2.9-.7 4.1 2.2 5.1 3.8 1.3 5.1.5 7-4.2.7-1.8 2.1-4.4 3.1-6 1.9-2.6 2.2-2.7 11.6-2.7 5.3 0 10.2.4 10.9.8.7.4 2.4 3.3 3.8 6.4 2.8 6.1 3.9 7 7.3 5.7 3.9-1.5 4.2-.6-14.4-39.7-3-6.2-5.4-11.7-5.4-12.2 0-1.6-1.5-1.2-3.3.8zm5.1 22.7c1.3 2.9 2.1 5.9 1.7 6.4-.8 1.4-10.2 1.4-11 0-.9-1.3 4.4-11.9 5.9-11.9.6 0 2.2 2.5 3.4 5.5zM212.3 102.1c-1 1-1.3 7.5-1.3 25.5 0 20.3.2 24.4 1.5 25.4 1.1.9 4.6 1.1 12.4.8 9.2-.4 11.7-.8 16.5-3.2 5.7-2.8 11.2-8.4 12.2-12.4.4-1.2 1-2.2 1.5-2.2 1.1 0 1.2-16.7.2-17.2-.5-.2-1.8-2.1-2.9-4.3-2.5-4.7-8.9-9.9-14.2-11.6-5.7-1.8-24.4-2.4-25.9-.8zm20.7 8c15.1 3.2 19.9 20.1 8.7 30.6-5.4 5.1-19.6 7.3-21.7 3.4-.5-1.1-1-8.5-1-17 0-19.2.6-19.9 14-17zM122.9 115.1c-1.3 1.3-1.8 2.7-1.4 3.9.4 1.1-.1 3-.9 4.2-2.1 3-2 6.1.3 8.9 1.6 2 2.8 2.4 7 2.3 3.5 0 5.2.4 5.6 1.4.4 1.1.8 1.2 2 .2s1.3-1.6.4-2.6c-.6-.8-.9-2.3-.6-3.4.7-2.7-2.4-2.7-4.1 0-2.5 4-8.7 1.6-8-3.1.3-2.4 1.8-3.5 6-4.4 3.6-.7 4.8-4.7 2.3-7.5-2.3-2.6-6-2.5-8.6.1zm6.1 2.9c0 1.1-.6 2-1.4 2-1.8 0-2.9-1.6-2.1-3 1.1-1.8 3.5-1.1 3.5 1zM65.5 186c-23 23.1-41.6 42.3-41.2 42.7.8.7 84.7-82.5 84.7-83.9 0-.5-.3-.8-.8-.8-.4 0-19.6 18.9-42.7 42zM147 144.8c0 1.4 83.9 84.6 84.7 83.9.7-.8-82.5-84.7-83.9-84.7-.5 0-.8.3-.8.8zM109.4 208.6c.3.9.6 2.9.6 4.5s.5 2.9 1 2.9c.6 0 1-2 1-4.5 0-3.5-.4-4.5-1.6-4.5-1.1 0-1.4.5-1 1.6zM114.9 209.1c-.8 1.6-.8 2.8 0 4.5 1.4 3.1 4.8 3.1 6.2 0 1.4-3-.3-6.6-3.1-6.6-1.1 0-2.4 1-3.1 2.1zm4.8 1.5c.8 2.1-1.3 4.2-2.8 2.7-1.3-1.3-.5-4.3 1.1-4.3.6 0 1.3.7 1.7 1.6zM125.2 208.2c-3 3-.2 8.6 3.8 7.3 1.9-.6 2.5-2.2 2-5.5-.4-2.8-3.7-3.9-5.8-1.8zm4.1 2.1c.3.8.1 2-.4 2.8-1.1 1.9-3.4-.3-2.6-2.5.8-2 2.3-2.1 3-.3zM134.7 207.7c-1.3 1.2-.7 4.4.8 4.9 1.2.5 1.3 1 .4 2-.9 1.1-.8 1.4.3 1.4.7 0 2.8-1.9 4.6-4.2 3.3-4.4 3.5-6.3.3-3.4-1.6 1.5-1.9 1.5-2.4.1-.7-1.5-2.8-2-4-.8zM141.4 212.5c-.4.9-.2 2.1.4 2.7 1.5 1.5 4.4.1 4-1.9-.4-2.3-3.6-2.9-4.4-.8z"/></g></svg><svg viewBox="0 0 48 48" id="socials-circle-facebook" xmlns="http://www.w3.org/2000/svg"><linearGradient id="ka" x1="9.993" x2="40.615" y1="9.993" y2="40.615" gradientUnits="userSpaceOnUse"><stop offset="0" stop-color="#2aa4f4"/><stop offset="1" stop-color="#007ad9"/></linearGradient><path fill="url(#ka)" d="M24 4C12.954 4 4 12.954 4 24s8.954 20 20 20 20-8.954 20-20S35.046 4 24 4z"/><path fill="#fff" d="M26.707 29.301h5.176l.813-5.258h-5.989v-2.874c0-2.184.714-4.121 2.757-4.121h3.283V12.46c-.577-.078-1.797-.248-4.102-.248-4.814 0-7.636 2.542-7.636 8.334v3.498H16.06v5.258h4.948v14.452c.98.146 1.973.246 2.992.246.921 0 1.82-.084 2.707-.204V29.301z"/></svg><svg viewBox="0 0 48 48" id="socials-circle-pinterest" xmlns="http://www.w3.org/2000/svg"><linearGradient id="la" x1="14.899" x2="33.481" y1="43.815" y2="7.661" gradientTransform="matrix(1 0 0 -1 .108 50.317)" gradientUnits="userSpaceOnUse"><stop offset="0" stop-color="#f22543"/><stop offset=".422" stop-color="#eb2239"/><stop offset="1" stop-color="#e52030"/></linearGradient><path fill="url(#la)" d="M44 23.981C44.011 35.026 35.064 43.989 24.019 44S4.011 35.064 4 24.019C3.989 12.974 12.936 4.011 23.981 4 35.026 3.989 43.989 12.936 44 23.981z"/><path d="M37.773 22.968c0-7.156-5.73-12.552-13.33-12.552-9.767 0-14.215 6.792-14.215 13.104 0 3.148 1.625 7.252 4.637 8.655.486.227.93.244 1.321.055.261-.126.603-.403.742-.995l.556-2.269a1.589 1.589 0 0 0-.339-1.442c-.626-.76-1.261-2.354-1.261-3.93 0-3.723 2.814-7.68 8.03-7.68 4.33 0 7.354 2.935 7.354 7.137 0 4.727-2.224 8.158-5.287 8.158-.682 0-1.29-.274-1.668-.752-.351-.444-.464-1.023-.321-1.631.196-.826.465-1.694.724-2.534.494-1.598.96-3.107.96-4.355 0-2.283-1.419-3.816-3.53-3.816-2.59 0-4.618 2.572-4.618 5.856 0 1.413.343 2.517.55 3.056-.365 1.544-1.949 8.249-2.27 9.627-.384 1.64-.307 3.804-.148 5.501 1.094.503 2.24.906 3.43 1.207.772-1.279 1.971-3.439 2.442-5.249.132-.508.488-1.866.786-3.001 1.098.794 2.585 1.291 4.076 1.291 6.488-.001 11.379-5.779 11.379-13.441z" opacity=".05"/><path d="M37.273 22.968c0-6.871-5.516-12.052-12.83-12.052-9.423 0-13.715 6.533-13.715 12.604 0 3.036 1.626 6.934 4.349 8.202.127.06.516.241.892.059.238-.116.398-.339.474-.662l.555-2.268a1.096 1.096 0 0 0-.239-1.008c-.809-.982-1.375-2.729-1.375-4.248 0-3.965 2.99-8.18 8.53-8.18 4.624 0 7.854 3.14 7.854 7.637 0 5.017-2.434 8.658-5.787 8.658-.835 0-1.586-.343-2.06-.942-.448-.566-.595-1.297-.415-2.057.2-.842.471-1.718.733-2.566.482-1.561.938-3.035.938-4.208 0-1.984-1.218-3.316-3.03-3.316-2.309 0-4.118 2.353-4.118 5.356 0 1.493.399 2.605.573 3.018-.279 1.18-1.973 8.348-2.306 9.779-.391 1.675-.282 3.944-.107 5.641.773.328 1.577.594 2.396.824.752-1.233 1.993-3.435 2.464-5.245.164-.63.671-2.563.986-3.762 1.014 1.009 2.681 1.678 4.36 1.678 6.202-.002 10.878-5.565 10.878-12.942z" opacity=".07"/><path fill="#FFF" d="M24.443 11.417c-8.632 0-13.215 5.795-13.215 12.103 0 2.933 1.562 6.585 4.06 7.748.378.177.582.1.668-.267.067-.278.403-1.637.555-2.268a.599.599 0 0 0-.138-.573c-.827-1.003-1.488-2.847-1.488-4.565 0-4.412 3.34-8.68 9.03-8.68 4.913 0 8.353 3.348 8.353 8.137 0 5.41-2.732 9.158-6.287 9.158-1.963 0-3.433-1.623-2.962-3.615.565-2.377 1.657-4.942 1.657-6.658 0-1.535-.823-2.817-2.53-2.817-2.007 0-3.618 2.075-3.618 4.857 0 1.77.598 2.968.598 2.968s-1.982 8.382-2.345 9.942c-.402 1.722-.246 4.141-.071 5.723.451.177.902.354 1.369.499.817-1.328 2.034-3.506 2.486-5.242.243-.937 1.247-4.755 1.247-4.755.652 1.243 2.557 2.297 4.583 2.297 6.032 0 10.378-5.547 10.378-12.44 0-6.609-5.391-11.552-12.33-11.552z"/></svg><svg viewBox="0 0 48 48" id="socials-circle-twitter" xmlns="http://www.w3.org/2000/svg"><linearGradient id="ma" x1="8.455" x2="40.88" y1="7.883" y2="41.5" gradientUnits="userSpaceOnUse"><stop offset="0" stop-color="#2aa4f4"/><stop offset="1" stop-color="#007ad9"/></linearGradient><path fill="url(#ma)" d="M24 4C12.954 4 4 12.954 4 24s8.954 20 20 20 20-8.954 20-20S35.046 4 24 4z"/><path d="M20 35c-3.24 0-6.351-.794-8.535-2.178l-.337-.213.592-1.671.396.046c.149.018.266.021.385.021l.494-.005c.997 0 2.452-.16 3.846-.577-1.396-.476-3.166-1.401-3.72-3.115L12.697 26h1.027A5.272 5.272 0 0 1 12 22.057v-1.62l.609.281c-.395-.765-.604-1.537-.604-2.262 0-1.049.278-2.075.806-2.966l.729-1.228.906 1.102c1.997 2.431 5.244 5.096 8.554 5.563V20c0-3.364 2.468-6 5.617-6 1.545 0 2.883.442 3.888 1.281 1.039-.261 2.308-.743 2.989-1.144l2.264-1.332-.807 2.5c-.038.12-.086.24-.144.362l1.939-.859-2.158 3.233c-.449.683-.875 1.332-1.595 1.939.005.259.007.531.007.65C35 27.596 29.743 35 20 35z" opacity=".05"/><path d="M20 34.5c-3.147 0-6.161-.766-8.268-2.101l.325-.919c.172.02.306.025.442.025L13 31.5c1.613 0 3.799-.369 5.475-1.163-2.026-.377-4.306-1.415-4.878-3.184l-.212-.653h.688c.476 0 .855-.025 1.165-.065-1.703-.855-2.737-2.454-2.737-4.378v-.838l.737.341c.215.116.501.249.813.378-.88-1.01-1.545-2.255-1.545-3.481 0-.959.255-1.897.736-2.711l.364-.614.453.551c2.209 2.689 5.804 5.554 9.44 5.8V20c0-3.084 2.248-5.5 5.117-5.5 1.529 0 2.819.458 3.751 1.328 1.124-.252 2.585-.792 3.379-1.259l1.132-.666-.403 1.25c-.191.594-.654 1.192-1.197 1.726.174-.068.348-.14.52-.216l1.577-.699-1.202 1.801c-.483.736-.906 1.38-1.683 1.981.006.303.01.727.01.883C34.5 27.354 29.418 34.5 20 34.5z" opacity=".07"/><path fill="#fff" d="M36 15c-.951.559-2.671 1.156-3.793 1.372-.896-.95-2.174-1.372-3.59-1.372C25.897 15 24 17.305 24 20v2c-4 0-7.9-3.047-10.327-6a4.813 4.813 0 0 0-.667 2.457c0 1.819 1.671 3.665 2.994 4.543-.807-.025-2.335-.641-3-1v.057c0 2.367 1.661 3.974 3.912 4.422-.411.113-.912.521-2.84.521.626 1.935 3.773 2.958 5.928 3-1.686 1.307-4.692 2-7 2-.399 0-.615.022-1-.023C14.178 33.357 17.22 34 20 34c9.057 0 14-6.918 14-13.37 0-.212-.007-.922-.018-1.13.968-.682 1.36-1.396 2.018-2.38-.882.391-1.999.758-3 .88 1.018-.604 2.633-1.862 3-3z"/></svg><svg viewBox="0 0 48 48" id="socials-twitter" xmlns="http://www.w3.org/2000/svg"><linearGradient id="na" x1="10.341" x2="40.798" y1="8.312" y2="38.769" gradientUnits="userSpaceOnUse"><stop offset="0" stop-color="#2aa4f4"/><stop offset="1" stop-color="#007ad9"/></linearGradient><path fill="url(#na)" d="M46.105 11.02a17.56 17.56 0 0 1-4.979 1.362 8.65 8.65 0 0 0 3.812-4.758 17.395 17.395 0 0 1-5.502 2.082A8.653 8.653 0 0 0 33.122 7c-4.783 0-8.661 3.843-8.661 8.582 0 .671.079 1.324.226 1.958A24.678 24.678 0 0 1 6.838 8.566a8.482 8.482 0 0 0-1.172 4.322c0 2.979 1.525 5.602 3.851 7.147a8.798 8.798 0 0 1-3.926-1.072v.101c0 4.163 2.986 7.63 6.944 8.419a8.617 8.617 0 0 1-2.276.308 9.204 9.204 0 0 1-1.632-.158c1.102 3.402 4.299 5.889 8.087 5.963A17.499 17.499 0 0 1 5.958 37.27c-.701 0-1.387-.04-2.065-.122A24.75 24.75 0 0 0 17.171 41c15.927 0 24.641-13.079 24.641-24.426 0-.372-.012-.742-.029-1.108a17.032 17.032 0 0 0 4.322-4.446"/></svg></svg>