<?xml version="1.0" standalone="no"?>
<!DOCTYPE svg PUBLIC "-//W3C//DTD SVG 20010904//EN"
 "http://www.w3.org/TR/2001/REC-SVG-20010904/DTD/svg10.dtd">
<svg version="1.0" xmlns="http://www.w3.org/2000/svg"
 width="260.000000pt" height="260.000000pt" viewBox="0 0 260.000000 260.000000"
 preserveAspectRatio="xMidYMid meet">
<metadata>
Created by potrace 1.14, written by Peter Selinger 2001-2017
</metadata>
<g transform="translate(0.000000,260.000000) scale(0.100000,-0.100000)"
fill="#509B7E" stroke="none">
<path d="M1224 2480 c-6 -6 -24 -12 -41 -13 -17 -1 -29 -5 -27 -9 3 -4 -6 -12
-18 -19 -24 -13 -72 -59 -61 -59 4 0 -1 -6 -11 -13 -9 -7 -18 -22 -19 -35 0
-12 -5 -22 -10 -22 -4 0 -5 -4 -2 -10 3 -5 2 -10 -4 -10 -6 0 -8 -31 -6 -82 4
-95 6 -108 14 -108 3 0 12 -13 19 -29 7 -16 29 -47 49 -68 20 -21 33 -32 29
-25 -4 6 -2 12 3 12 6 0 11 -4 11 -10 0 -5 17 -18 38 -28 43 -22 168 -27 191
-9 12 9 13 9 7 -1 -8 -14 65 27 76 43 4 5 8 7 8 3 0 -5 9 1 20 12 11 11 19 21
18 23 -2 1 9 16 24 32 15 16 25 32 22 37 -3 4 -1 8 4 8 5 0 9 6 10 13 1 14 10
52 12 52 1 0 2 19 3 43 1 23 -1 42 -5 42 -4 0 -5 9 -3 20 2 11 -3 27 -11 35
-9 8 -13 19 -10 23 3 5 -4 19 -15 30 -11 12 -17 22 -14 22 4 0 0 7 -9 15 -8 8
-19 15 -25 15 -6 0 -10 6 -8 13 1 6 -4 11 -10 10 -7 -2 -13 1 -13 6 0 5 -16
15 -35 22 -19 7 -35 16 -35 20 0 11 -154 11 -166 -1z m101 -80 c0 -2 27 -9 50
-12 24 -4 79 -58 99 -100 21 -40 20 -120 0 -161 -14 -28 -70 -89 -84 -91 -3
-1 -4 -3 -3 -6 1 -3 -27 -6 -63 -8 -95 -5 -159 30 -198 109 -19 38 -21 132 -3
151 6 7 13 19 15 26 1 6 10 20 20 30 24 24 92 65 92 56 0 -4 4 -4 10 2 7 7 65
11 65 4z"/>
<path d="M232 2280 c5 -25 35 -53 50 -44 10 6 10 4 -1 -9 -11 -14 -11 -17 0
-18 8 -1 18 -1 23 0 5 1 6 -5 3 -13 -8 -21 8 -29 23 -12 9 12 5 21 -23 48 -19
18 -37 40 -40 48 -4 11 -6 10 -6 -4 -1 -20 -1 -20 -16 0 -10 12 -14 14 -13 4z"/>
<path d="M2335 2273 c-5 -10 -8 -21 -7 -24 0 -3 -7 -6 -16 -6 -9 0 -25 -12
-37 -28 -31 -43 -102 -114 -108 -109 -3 3 -8 -4 -12 -15 -3 -12 -13 -21 -20
-21 -9 0 -12 -8 -10 -21 4 -17 2 -19 -10 -9 -8 7 -16 10 -16 6 -1 -3 -2 -12
-3 -18 -1 -7 -8 -12 -15 -10 -7 1 -10 -2 -7 -7 4 -5 -3 -12 -14 -16 -11 -3
-20 -12 -20 -18 0 -7 -15 -22 -33 -35 -19 -12 -40 -33 -47 -47 -7 -14 -21 -27
-31 -30 -9 -3 -19 -15 -22 -26 -4 -14 -10 -18 -18 -13 -9 5 -10 2 -6 -10 4 -9
3 -15 -2 -12 -7 5 -15 -2 -65 -53 -10 -11 -15 -24 -11 -30 8 -14 25 -14 25 0
0 14 26 40 33 33 3 -3 8 4 12 15 3 12 9 19 13 17 4 -2 13 2 20 10 7 8 10 14 6
14 -4 0 9 13 29 29 29 22 34 31 24 41 -9 10 -9 11 1 6 20 -12 35 4 20 22 -11
13 -10 14 7 5 15 -8 24 -6 38 9 9 10 14 18 10 18 -4 0 3 7 15 16 12 8 19 20
16 26 -5 7 -2 10 7 7 11 -4 86 60 81 69 -7 9 0 22 8 17 6 -3 13 1 16 9 3 9 10
13 15 10 5 -3 9 2 9 10 0 9 7 16 16 16 8 0 13 3 11 8 -5 7 17 33 28 32 3 0 8
0 11 0 4 0 1 6 -5 14 -10 12 -9 14 6 10 13 -4 19 1 20 16 1 12 -2 18 -9 14 -7
-4 -8 -2 -4 5 6 9 11 9 22 0 11 -9 14 -9 14 0 0 7 3 10 8 8 4 -3 15 5 24 18
15 19 15 25 4 34 -11 9 -15 7 -21 -6z"/>
<path d="M339 2188 c-7 -25 -5 -38 7 -38 9 0 12 -4 9 -10 -3 -5 1 -10 10 -10
8 0 19 -9 23 -21 5 -11 12 -21 17 -22 6 -1 9 -5 7 -9 -1 -5 7 -8 19 -8 11 0
17 -5 14 -10 -3 -6 1 -13 9 -16 9 -3 16 -12 16 -20 0 -8 6 -13 13 -11 6 1 11
-6 11 -15 -1 -15 2 -16 20 -6 19 10 20 10 7 -5 -10 -12 -10 -17 -2 -17 16 0
42 -26 34 -34 -4 -3 1 -6 11 -6 9 0 15 -4 11 -9 -3 -5 4 -12 15 -16 11 -3 20
-13 20 -22 0 -8 5 -13 12 -11 17 6 19 38 2 38 -8 0 -14 7 -14 16 0 8 -3 13 -7
11 -10 -6 -34 18 -27 27 2 3 1 4 -3 1 -3 -3 -17 10 -30 28 -13 17 -27 32 -31
32 -4 0 -6 3 -5 7 2 4 -6 9 -16 13 -10 3 -24 16 -31 30 -7 13 -18 23 -24 22
-6 -1 -10 4 -8 11 1 6 -2 12 -6 12 -12 0 -53 36 -47 41 2 3 -5 10 -15 17 -11
7 -20 11 -21 10z"/>
<path d="M641 1876 c-11 -13 -11 -17 2 -22 9 -3 19 -14 22 -25 4 -11 11 -17
16 -14 5 4 9 -2 9 -11 0 -10 3 -15 6 -11 4 3 13 0 21 -8 19 -19 33 -19 33 0 0
8 -4 15 -8 15 -15 0 -52 37 -45 44 3 3 0 6 -9 6 -8 0 -19 9 -24 21 -9 19 -11
20 -23 5z"/>
<path d="M740 1760 c-13 -8 -12 -10 3 -10 12 0 16 -4 11 -12 -4 -7 -4 -10 1
-6 5 5 15 -1 22 -12 8 -12 20 -17 26 -13 7 4 6 0 -2 -10 -7 -9 -9 -17 -4 -17
13 0 50 29 38 30 -16 0 -65 46 -58 54 10 10 -20 7 -37 -4z"/>
<path d="M1780 1723 c0 -12 -51 -69 -59 -66 -3 0 -5 -3 -3 -9 1 -5 -7 -12 -18
-15 -11 -3 -20 -8 -20 -12 0 -8 -138 -151 -145 -151 -10 0 -40 -37 -43 -53 -2
-15 1 -15 22 -5 14 6 28 19 32 30 3 10 9 16 13 13 4 -2 14 7 21 20 7 14 19 25
27 25 7 0 12 6 10 13 -1 6 3 11 10 10 6 -2 15 6 18 17 4 11 11 18 16 15 5 -4
9 1 9 9 0 9 7 16 16 16 14 0 15 2 3 16 -12 15 -11 16 9 10 19 -6 25 -4 29 13
3 11 9 18 14 15 5 -3 9 2 9 10 0 9 7 16 15 16 8 0 14 6 13 13 -2 6 2 11 9 10
18 -4 23 24 7 37 -8 7 -14 8 -14 3z m-250 -283 c0 -5 -5 -10 -11 -10 -5 0 -7
5 -4 10 3 6 8 10 11 10 2 0 4 -4 4 -10z"/>
<path d="M825 1680 c-3 -5 -1 -10 5 -10 6 0 8 -4 5 -10 -3 -5 1 -10 9 -10 8 0
18 -9 21 -20 3 -11 13 -20 21 -20 13 0 19 -12 15 -33 -1 -5 3 -6 7 -3 11 7 73
-50 64 -58 -3 -3 2 -6 12 -6 9 0 14 -4 11 -10 -3 -5 -2 -10 3 -10 13 0 72 -55
72 -67 0 -5 9 -9 20 -10 11 -1 20 2 20 6 0 15 -42 51 -52 45 -7 -5 -9 -1 -5 9
3 10 2 17 -4 17 -14 0 -39 26 -39 41 0 7 -3 10 -6 7 -3 -4 -18 7 -33 23 -15
16 -31 26 -35 22 -4 -4 -4 0 0 10 4 12 1 17 -11 17 -9 0 -13 5 -10 10 3 6 -4
10 -17 10 -18 0 -20 2 -8 10 11 7 12 10 2 10 -17 0 -43 26 -35 34 4 3 -1 6
-10 6 -9 0 -19 -4 -22 -10z"/>
<path d="M237 1468 c-8 -13 -18 -33 -22 -45 -3 -13 -10 -23 -14 -23 -4 0 -7
-10 -8 -22 -1 -11 -6 -24 -11 -27 -10 -6 -22 -39 -21 -55 0 -5 -5 -12 -12 -17
-7 -4 -14 -15 -15 -25 -2 -9 -9 -21 -16 -25 -7 -5 -9 -9 -4 -9 5 0 4 -6 -2
-12 -10 -13 -12 -18 -12 -39 0 -5 -5 -7 -11 -3 -7 4 -10 1 -7 -7 3 -8 -2 -23
-11 -33 -13 -16 -13 -18 -1 -11 12 7 12 5 -1 -11 -9 -10 -20 -29 -23 -41 -4
-13 -12 -23 -17 -23 -6 0 -8 -4 -5 -9 8 -13 -4 -42 -15 -35 -5 3 -8 -6 -7 -20
1 -15 8 -26 15 -26 7 0 13 -4 13 -8 0 -16 51 -12 57 6 4 9 10 19 15 22 6 5 15
34 17 63 1 5 6 5 11 2 9 -6 11 0 9 23 -1 12 45 19 53 8 5 -7 8 -6 8 3 0 11 3
11 15 1 9 -7 15 -8 15 -2 0 12 33 10 42 -3 5 -7 8 -6 8 0 0 6 12 10 28 9 15
-1 34 -3 42 -3 20 -1 53 -58 37 -65 -9 -3 -8 -5 1 -5 12 -1 37 -48 34 -63 -3
-11 20 -10 56 3 25 9 30 15 27 37 -2 15 -4 31 -4 35 -1 5 -5 5 -11 2 -5 -3
-10 1 -10 10 0 8 -20 57 -44 108 -24 50 -47 100 -50 110 -3 10 -10 16 -15 13
-5 -4 -8 1 -7 9 1 9 -12 46 -30 82 -18 37 -30 71 -27 76 3 6 1 7 -5 3 -7 -4
-12 -1 -12 7 0 8 -9 24 -19 36 l-20 22 -14 -23z m32 -197 c7 -5 11 -13 7 -19
-3 -6 2 -15 11 -21 10 -6 14 -11 8 -11 -6 0 -5 -3 1 -8 6 -4 14 -17 18 -28 6
-18 3 -21 -19 -19 -14 2 -25 -1 -25 -7 0 -7 -4 -7 -12 0 -7 5 -23 8 -35 6 -31
-5 -36 9 -14 37 10 13 16 30 14 37 -3 6 0 12 6 12 6 0 11 7 11 15 0 17 9 19
29 6z"/>
<path d="M2157 1463 c-14 -4 -15 -8 -7 -18 8 -10 8 -15 -1 -21 -8 -5 -10 -3
-4 7 7 12 5 12 -6 1 -12 -11 -12 -14 0 -21 8 -6 9 -11 3 -15 -17 -10 -10 -47
8 -41 12 4 11 2 -2 -8 -11 -9 -14 -18 -7 -28 5 -8 9 -18 9 -24 0 -5 -5 -3 -10
5 -6 9 -10 10 -10 3 0 -6 5 -15 10 -18 8 -5 7 -11 -1 -21 -9 -11 -9 -14 1 -14
9 0 9 -4 3 -12 -16 -21 -12 -50 6 -43 14 4 14 4 1 -8 -17 -14 -24 -37 -12 -37
4 0 8 -15 8 -34 0 -19 -3 -33 -6 -31 -4 2 -7 -2 -7 -10 0 -8 4 -15 9 -15 5 0
4 -8 -1 -18 -11 -20 -10 -40 2 -59 5 -7 4 -13 -2 -13 -5 0 -8 -6 -7 -12 3 -25
17 -37 33 -31 10 4 14 2 10 -4 -7 -11 42 -11 61 1 7 4 12 2 12 -3 0 -13 22
-10 32 4 5 6 8 4 8 -5 0 -13 1 -13 10 0 8 12 10 12 10 1 0 -11 5 -10 20 4 20
18 21 18 14 1 -6 -16 -4 -17 14 -7 15 8 22 8 25 -2 4 -7 6 -6 6 5 1 11 9 15
27 13 14 -1 28 3 31 10 2 7 15 16 29 19 13 4 24 11 24 17 0 6 5 7 10 4 6 -3
10 2 10 11 0 10 3 14 7 11 6 -6 47 51 45 63 0 3 5 8 12 12 15 8 22 170 9 191
-4 6 -8 14 -9 17 -3 19 -25 59 -34 65 -5 3 -7 11 -4 17 4 6 3 8 -3 5 -6 -4
-20 5 -33 18 -13 13 -27 22 -31 19 -5 -3 -9 0 -9 5 0 6 -20 16 -44 23 -25 6
-43 15 -41 18 2 3 -7 6 -20 6 -13 0 -21 -4 -19 -8 3 -4 -6 -4 -20 2 -19 7 -26
6 -26 -3 0 -7 -3 -8 -8 -2 -8 12 -52 13 -69 2 -6 -4 -13 -1 -16 5 -3 10 -8 9
-22 -2 -11 -9 -16 -10 -11 -2 4 6 6 11 4 11 -2 -1 -11 -3 -21 -6z m135 -104
c-1 -9 2 -8 11 3 11 14 16 15 27 5 10 -9 11 -9 6 1 -4 6 -3 12 2 12 6 0 13 -7
16 -16 5 -13 9 -14 21 -4 10 9 15 9 15 1 0 -6 9 -11 19 -11 11 0 32 -13 48
-28 38 -39 61 -68 46 -58 -7 4 -13 3 -13 -3 0 -5 5 -11 12 -13 11 -4 14 -67 6
-108 -5 -22 -49 -92 -55 -86 -8 7 -32 -18 -26 -27 2 -4 -7 -6 -21 -3 -14 3
-26 0 -26 -5 0 -6 -4 -8 -9 -4 -5 3 -12 2 -14 -2 -6 -10 -74 -9 -104 1 -22 7
-40 36 -22 36 6 0 7 4 4 10 -3 5 -1 18 5 29 7 14 7 22 -2 27 -6 4 -8 3 -4 -4
3 -6 2 -13 -3 -17 -12 -7 -6 26 10 57 11 21 11 22 -4 10 -14 -12 -15 -11 -7
17 4 17 12 36 16 43 6 10 4 10 -9 0 -15 -12 -15 -11 -7 20 12 40 12 40 2 34
-14 -9 -7 49 8 62 8 8 10 11 5 8 -6 -2 -11 3 -11 13 0 13 8 17 31 15 19 -1 29
-6 27 -15z"/>
<path d="M1277 1342 c3 -7 2 -12 -3 -11 -25 6 -40 -13 -38 -46 2 -19 -3 -40
-10 -47 -7 -8 -12 -32 -11 -58 3 -60 3 -62 15 -55 6 3 10 1 10 -5 0 -17 41
-28 77 -20 18 5 33 4 33 -1 0 -5 9 -9 19 -9 15 0 18 5 14 23 -3 12 -12 29 -20
39 -10 11 -11 18 -3 23 6 3 9 1 8 -6 -2 -6 4 -14 12 -16 12 -4 12 -3 2 5 -8 5
-13 12 -13 16 1 7 -8 8 -31 0 -10 -3 -18 -11 -18 -17 0 -18 -46 -19 -59 -3
-16 19 -4 66 15 59 8 -3 14 1 14 8 0 7 3 9 7 6 3 -4 13 -1 21 6 13 9 14 9 8 0
-4 -7 -4 -13 -1 -13 3 0 12 14 19 32 16 38 5 73 -26 81 -11 3 -18 9 -15 14 3
5 -3 9 -13 9 -11 0 -16 -6 -13 -14z m30 -69 c-12 -11 -37 6 -31 21 5 14 8 14
21 0 9 -8 13 -18 10 -21z"/>
<path d="M1082 1009 c-5 -11 -11 -20 -15 -20 -26 3 -29 0 -17 -14 10 -12 8
-14 -7 -10 -13 2 -25 -6 -37 -26 -10 -17 -22 -27 -29 -23 -7 4 -9 4 -5 -1 4
-4 -8 -20 -28 -36 -19 -15 -35 -30 -35 -33 0 -3 -11 -18 -26 -33 -14 -16 -23
-22 -18 -14 5 9 4 12 -3 7 -6 -4 -8 -14 -5 -23 4 -10 2 -14 -4 -10 -15 9 -36
-19 -27 -35 5 -8 1 -8 -11 2 -10 8 -17 11 -14 5 3 -5 -7 -23 -23 -38 -15 -15
-28 -25 -28 -21 0 4 -13 -9 -29 -29 -15 -20 -32 -33 -35 -29 -4 4 -6 0 -4 -8
1 -8 -3 -14 -9 -12 -7 1 -13 -3 -13 -8 0 -16 -73 -86 -85 -82 -5 2 -7 0 -3 -3
4 -4 -17 -31 -47 -60 -56 -53 -68 -72 -39 -61 9 3 12 2 9 -5 -4 -5 -15 -7 -25
-4 -13 4 -22 -1 -30 -15 -6 -11 -15 -18 -21 -15 -5 4 -8 3 -7 -2 3 -11 -63
-79 -74 -76 -11 4 -10 -24 1 -31 5 -3 20 5 34 18 20 18 23 26 14 36 -10 10 -7
10 11 1 12 -7 22 -8 21 -4 -3 20 2 34 11 28 6 -3 14 4 19 17 6 13 10 19 10 15
1 -5 16 6 35 25 19 18 32 36 29 41 -2 4 3 7 12 7 11 0 15 5 11 15 -3 8 -2 14
2 13 14 -3 42 14 36 23 -3 5 1 9 9 9 14 0 32 27 29 42 -1 4 5 5 13 2 10 -4 15
0 15 12 0 9 3 15 6 11 8 -8 34 18 34 33 0 6 4 9 8 6 4 -2 13 4 20 15 9 14 9
19 0 19 -6 0 -8 3 -5 6 4 4 14 1 22 -6 9 -7 15 -9 14 -4 -3 18 3 49 7 37 3 -7
13 -4 28 10 17 17 20 25 12 36 -9 12 -7 12 14 1 14 -7 22 -9 18 -5 -4 4 13 27
37 51 24 24 41 44 38 44 -2 0 3 7 11 16 9 8 20 12 26 9 13 -8 9 17 -5 28 -5 5
1 5 14 2 21 -6 23 -4 18 14 -4 18 -2 19 14 10 15 -7 19 -7 17 3 -2 7 2 12 9
11 8 -2 10 4 6 14 -5 12 -3 14 7 8 10 -6 12 -3 8 13 -4 13 -2 19 6 16 15 -6
56 28 56 46 0 7 6 10 14 7 10 -4 12 0 9 14 -7 25 -22 24 -31 -2z"/>
<path d="M1480 1019 c0 -5 5 -9 11 -9 5 0 7 -4 4 -10 -3 -5 1 -10 10 -10 9 0
14 -3 12 -7 -4 -10 40 -53 47 -45 3 3 6 -2 6 -11 0 -8 8 -18 18 -21 11 -4 25
-18 32 -31 7 -14 20 -25 27 -25 8 0 11 -5 7 -12 -5 -8 0 -9 15 -5 18 4 20 3
10 -9 -7 -9 -8 -14 -1 -14 20 0 64 -48 56 -61 -4 -7 -3 -9 4 -5 6 3 17 -3 25
-14 7 -11 17 -17 20 -13 4 3 7 -1 7 -11 0 -9 4 -15 9 -12 9 6 26 -22 22 -37
-1 -4 8 -3 19 3 26 14 26 34 0 27 -11 -3 -18 -1 -14 4 6 10 -9 40 -22 42 -5 1
-8 5 -6 10 1 4 -5 7 -14 7 -9 0 -12 -5 -8 -12 4 -7 3 -8 -5 -4 -9 6 -9 11 0
22 9 11 8 14 -2 14 -8 0 -20 9 -27 20 -7 12 -17 18 -23 15 -5 -4 -9 -3 -8 2 3
13 -12 43 -23 43 -15 0 -38 27 -30 35 4 5 1 5 -6 1 -8 -5 -15 1 -21 16 -4 13
-12 23 -17 23 -5 0 -7 5 -6 10 2 6 1 7 -3 3 -9 -8 -45 23 -45 39 0 7 -5 13
-11 13 -7 0 -17 8 -24 17 -13 18 -45 27 -45 12z"/>
<path d="M1855 660 c-6 -10 30 -65 43 -65 4 0 6 -6 4 -13 -2 -7 1 -12 5 -11
17 3 33 -1 31 -8 -2 -5 0 -9 5 -10 18 -7 27 -2 27 14 0 9 -3 14 -6 10 -8 -7
-54 38 -54 54 0 8 -4 8 -15 -1 -13 -11 -14 -10 -10 2 7 18 -20 44 -30 28z"/>
<path d="M1967 544 c-9 -9 4 -35 14 -28 5 3 9 -2 9 -10 0 -18 16 -21 25 -5 4
6 -2 19 -14 30 -22 21 -25 22 -34 13z"/>
<path d="M2014 484 c-10 -8 -14 -13 -8 -10 7 3 24 -10 39 -29 14 -20 31 -33
36 -30 5 4 9 1 9 -5 0 -15 26 -41 34 -33 3 4 6 -2 6 -11 0 -12 5 -16 14 -13
11 4 13 1 9 -10 -4 -11 -2 -14 5 -9 7 4 12 1 12 -8 0 -10 9 -16 23 -16 18 0
19 -2 7 -10 -13 -8 -12 -10 3 -10 11 0 15 -4 11 -12 -5 -7 -2 -9 9 -5 11 4 14
2 11 -7 -3 -7 6 -20 20 -30 31 -20 43 -20 43 -2 0 8 -4 14 -8 13 -9 -2 -49 43
-49 55 0 5 -4 6 -10 3 -5 -3 -10 1 -10 10 0 11 -5 15 -15 11 -13 -5 -20 5 -16
27 0 4 -3 7 -8 7 -11 0 -111 95 -111 105 0 7 -26 35 -32 35 -2 0 -13 -7 -24
-16z m61 -52 c-3 -3 -11 0 -18 7 -9 10 -8 11 6 5 10 -3 15 -9 12 -12z"/>
<path d="M1181 403 c12 -15 12 -16 -6 -9 -20 7 -20 7 0 -12 11 -10 22 -15 23
-11 2 5 8 9 13 9 6 0 7 -5 3 -12 -5 -7 -3 -8 6 -3 10 6 12 4 7 -9 -4 -10 -7
-19 -7 -22 0 -2 -8 -1 -17 2 -14 5 -15 4 -4 -4 11 -8 10 -12 -7 -21 -24 -13
-30 -6 -28 29 2 27 -18 55 -33 46 -5 -4 -12 -1 -14 4 -3 6 -4 5 -2 -2 1 -7 7
-12 13 -11 5 1 8 -7 5 -17 -3 -11 -9 -20 -14 -20 -5 0 -9 -5 -9 -11 0 -6 7 -8
16 -5 12 5 14 1 9 -17 -4 -15 -4 -18 3 -8 12 16 35 5 25 -12 -4 -7 1 -6 10 2
15 12 17 12 11 -4 -5 -13 -4 -16 4 -11 7 4 12 15 12 24 0 15 2 15 11 2 9 -13
10 -13 6 1 -3 9 0 22 6 28 16 16 32 14 18 -3 -15 -18 -3 -25 29 -15 14 4 19 7
11 8 -9 1 -12 10 -9 31 5 34 -6 47 -25 32 -14 -12 -51 10 -39 23 4 5 1 5 -5 1
-7 -4 -13 -2 -13 3 0 6 -5 11 -11 11 -8 0 -7 -6 2 -17z"/>
<path d="M1278 411 c8 -4 13 -11 13 -15 -3 -18 1 -22 19 -23 22 -2 25 5 9 27
-9 12 -10 11 -5 -5 5 -18 4 -17 -10 3 -9 12 -22 22 -28 22 -7 0 -6 -4 2 -9z"/>
<path d="M1087 395 c-4 -8 -2 -17 4 -20 5 -4 7 -10 5 -14 -3 -4 1 -8 9 -8 13
0 13 3 1 16 -7 9 -11 22 -9 29 7 17 -4 15 -10 -3z"/>
<path d="M1362 390 c-12 -12 -22 -25 -22 -31 0 -6 -4 -7 -10 -4 -6 4 -7 -1 -3
-11 5 -13 3 -16 -10 -11 -11 4 -14 2 -10 -8 3 -9 -4 -18 -18 -24 -26 -11 -25
-11 9 -15 12 -2 23 1 23 6 1 4 3 13 4 18 1 6 3 13 4 18 1 4 6 0 11 -8 8 -13
10 -12 10 4 0 13 5 16 18 12 16 -6 16 -5 0 8 -25 18 -23 29 2 14 11 -7 20 -18
20 -25 0 -7 5 -13 11 -13 5 0 8 -4 5 -8 -3 -5 10 -7 29 -6 28 3 33 0 30 -16
-3 -13 1 -17 11 -13 8 3 14 10 14 15 0 6 7 8 14 5 10 -4 13 -1 9 9 -3 8 1 14
8 14 9 1 8 4 -4 11 -9 6 -15 14 -12 19 3 5 0 12 -6 16 -8 5 -9 3 -4 -6 5 -8 3
-11 -6 -8 -8 3 -15 10 -15 16 -3 23 -4 24 -18 13 -11 -9 -16 -9 -22 0 -5 8 -3
9 6 4 9 -6 11 -4 6 4 -8 12 -21 7 -21 -7 -1 -23 -17 -31 -35 -19 -11 6 -20 16
-20 21 0 5 10 1 22 -10 19 -15 20 -16 9 -1 -9 11 -10 17 -2 17 6 0 11 5 11 10
0 17 -25 11 -48 -10z m123 -88 c-10 -10 -15 -12 -11 -5 3 6 1 15 -6 19 -8 5
-6 10 8 14 25 10 31 -8 9 -28z"/>
<path d="M306 235 c-3 -8 -13 -15 -21 -15 -9 0 -14 -4 -11 -9 3 -5 -1 -11 -9
-15 -16 -6 -21 -36 -6 -36 13 0 60 47 54 54 -6 6 13 10 31 7 5 -1 4 5 -4 13
-16 20 -26 20 -34 1z"/>
<path d="M2286 211 c-19 -7 -19 -8 3 -14 15 -4 20 -10 15 -18 -4 -8 -3 -10 4
-5 7 4 12 2 12 -5 0 -8 4 -8 15 1 13 11 14 10 10 -2 -4 -10 1 -17 13 -20 11
-3 19 0 19 8 0 8 -2 12 -5 9 -2 -2 -16 9 -30 25 -29 32 -28 32 -56 21z"/>
<path d="M230 158 c0 -7 10 -14 21 -15 12 -1 20 -1 18 0 -2 2 -12 9 -21 16
-15 11 -18 11 -18 -1z"/>
</g>
</svg>
